<?xml version="1.0" encoding="utf-8"?>
<!-- Generator: Adobe Illustrator 16.0.0, SVG Export Plug-In . SVG Version: 6.00 Build 0)  -->
<!DOCTYPE svg PUBLIC "-//W3C//DTD SVG 1.1//EN" "http://www.w3.org/Graphics/SVG/1.1/DTD/svg11.dtd">
<svg version="1.1" id="Layer_1" xmlns="http://www.w3.org/2000/svg" xmlns:xlink="http://www.w3.org/1999/xlink" x="0px" y="0px"
	 width="512px" height="512px" viewBox="0 0 512 512" enable-background="new 0 0 512 512" xml:space="preserve">
<g>
	<g>
		<g>
			<g>
				<g>
					<g>
						<g>
							<g>
								<g>
									<g>
										<path fill="#48A1AF" d="M504.1,256C504.1,119,393,7.9,256,7.9C119,7.9,7.9,119,7.9,256C7.9,393,119,504.1,256,504.1
											C393,504.1,504.1,393,504.1,256z"/>
									</g>
								</g>
							</g>
						</g>
					</g>
				</g>
			</g>
		</g>
	</g>
	<g>
		<polygon fill="#D4D6D8" points="218.1,343.3 255.7,371.4 293.9,343.3 295.8,330.2 255.8,324.9 216.2,330.2 		"/>
	</g>
	<g>
		<g>
			<g>
				<path fill="#9BD1DD" d="M256,504.1c70.2,0,133.6-29.2,178.7-76c-2.8-15.1-5.6-28.9-8.3-37.4c-8.5-27.3-81.2-49.3-170.8-49.3
					S94.1,363.4,85.6,390.7c-2.6,8.5-5.5,22.2-8.3,37.4C122.4,474.9,185.8,504.1,256,504.1z"/>
			</g>
		</g>
	</g>
	<g>
		<g>
			<path fill="#D6E7F2" d="M351,458.6h-76.5v44.8c26.9-2,52.7-8.3,76.5-18.2V458.6z"/>
		</g>
		<rect x="274.5" y="457.8" fill="#556877" width="76.5" height="6.2"/>
		<g>
			<g>
				<path fill="#556877" d="M343.3,473.8h-31.2c-0.9,0-1.6-0.7-1.6-1.6c0-0.9,0.7-1.6,1.6-1.6h31.2c0.9,0,1.6,0.7,1.6,1.6
					C344.9,473.1,344.2,473.8,343.3,473.8z"/>
			</g>
			<g>
				<path fill="#556877" d="M343.3,485.7h-31.2c-0.9,0-1.6-0.7-1.6-1.6c0-0.9,0.7-1.6,1.6-1.6h31.2c0.9,0,1.6,0.7,1.6,1.6
					C344.9,484.9,344.2,485.7,343.3,485.7z"/>
			</g>
			<g>
				<path fill="#556877" d="M312.2,494.4c-0.9,0-1.6,0.7-1.6,1.6c0,0.9,0.7,1.6,1.6,1.6h0.6c4.1-1,8.2-2,12.2-3.2H312.2z"/>
			</g>
		</g>
		<rect x="280.4" y="469" fill="#556877" width="23.4" height="29.7"/>
	</g>
	<path fill="#8C502F" d="M294.9,290h-77.8c12.1,36.6,1,53.3,1,53.3l26.9,6.1h22l26.9-6.1C293.9,343.3,282.8,326.6,294.9,290z"/>
	<g>
		<path fill="#8C502F" d="M218.1,343.3c0,0,16.8,28.1,37.6,28.1s38.2-28.1,38.2-28.1l-38.2-18.4L218.1,343.3z"/>
	</g>
	<g>
		<g>
			<g>
				<g>
					<g>
						<g>
							<g>
								<g>
									<g>
										<path fill="#9B5C32" d="M344.3,183.1c0-92.4-39.5-113.6-88.3-113.6c-48.7,0-88.3,21.2-88.3,113.6
											c0,31.3,6.2,55.8,15.5,74.7c20.4,41.6,55.7,56.1,72.8,56.1s52.4-14.5,72.8-56.1C338.1,238.9,344.3,214.4,344.3,183.1z"/>
										<path fill="#9B5C32" d="M178.3,246.6c-8.4,1.4-14.4,0.1-19.1-27.7s1.7-31.5,10.1-32.9L178.3,246.6z"/>
										<path fill="#9B5C32" d="M333.8,246.6c8.4,1.4,14.3,0.1,19.1-27.7c4.8-27.8-1.7-31.5-10.1-32.9L333.8,246.6z"/>
									</g>
								</g>
							</g>
						</g>
					</g>
				</g>
			</g>
		</g>
	</g>
	<g>
		<path fill="#844A2C" d="M284.7,272.7c0,2.7-12.8,10.1-28.7,10.1s-28.7-7.4-28.7-10.1c0-1.7,9.1-6.5,15.2-7.3
			c3.8-0.6,13.5,3,13.5,3s9.5-3.6,13.3-3.1C275.5,266.2,284.7,272.7,284.7,272.7z"/>
		<path fill="#7A4229" d="M284.7,272.7c0,2.7-12.8,13.2-28.7,13.2s-28.7-10.5-28.7-13.2c0,0,11.7,1.4,28.7,1.4
			S284.7,272.7,284.7,272.7z"/>
	</g>
	<g>
		<g>
			<g>
				<g>
					<g>
						<g>
							<g>
								<g>
									<g>
										<path fill="#30302E" d="M344.3,183.1c0-92.4-39.5-113.6-88.3-113.6c-48.7,0-88.3,21.2-88.3,113.6l134.4-68.4L344.3,183.1z
											"/>
									</g>
								</g>
							</g>
						</g>
					</g>
				</g>
			</g>
		</g>
	</g>
	<g>
		<g>
			<g>
				<g>
					<g>
						<g>
							<g>
								<g>
									<g>
										<path fill="#30302E" d="M173.4,148.7c-4.2,10.9-5.6,24.4-5.6,37.5c0,0,8.8-1.9,8.8,2.6l2.8,27.6l3.9-1.9
											c-0.2-23,4.9-64.8,4.9-64.8L173.4,148.7z"/>
									</g>
								</g>
							</g>
						</g>
					</g>
				</g>
			</g>
		</g>
	</g>
	<g>
		<g>
			<g>
				<g>
					<g>
						<g>
							<g>
								<g>
									<g>
										<path fill="#30302E" d="M338.7,148.7c4.2,10.9,5.6,24.4,5.6,37.5c0,0-8.8-1.9-8.8,2.6l-2.8,27.6l-3.9-1.9
											c0.2-23-4.9-66.2-4.9-66.2L338.7,148.7z"/>
									</g>
								</g>
							</g>
						</g>
					</g>
				</g>
			</g>
		</g>
	</g>
	<path fill="#E4E9ED" d="M256.1,435.8c17.7,0,46.4-92.5,46.4-92.5l-46.8,28.4l-46.2-28.4C209.5,343.3,238.4,435.8,256.1,435.8z"/>
	<path fill="#E4E9ED" d="M313.7,345.7l-17.9-15.5L256,371.8c0,0,34-5.1,34.2-5.2L313.7,345.7z"/>
	<path fill="#E4E9ED" d="M198.3,345.7l17.9-15.5l39.8,41.6c0,0-34-5.1-34.2-5.2L198.3,345.7z"/>
	<path fill="#62A4AF" d="M204.5,340.3l-12.5,6.4l8,41.8l16.3-3.7l-12,14.7l51.7,51.4l0-15.1c0,0-34-69.2-34.2-69.3L204.5,340.3z"/>
	<path fill="#62A4AF" d="M307.5,340.3l12.5,6.4l-8,41.8l-16.3-3.7l12,14.7L256,450.9l0-15.1c0,0,34-69.2,34.2-69.3L307.5,340.3z"/>
</g>
</svg>
