<?xml version="1.0" encoding="utf-8"?>
<!-- Generator: Adobe Illustrator 16.0.0, SVG Export Plug-In . SVG Version: 6.00 Build 0)  -->
<!DOCTYPE svg PUBLIC "-//W3C//DTD SVG 1.1//EN" "http://www.w3.org/Graphics/SVG/1.1/DTD/svg11.dtd">
<svg version="1.1" id="Layer_1" xmlns="http://www.w3.org/2000/svg" xmlns:xlink="http://www.w3.org/1999/xlink" x="0px" y="0px"
	 width="512px" height="512px" viewBox="0 0 512 512" enable-background="new 0 0 512 512" xml:space="preserve">
<g>
	<g>
		<g>
			<g>
				<g>
					<g>
						<g>
							<g>
								<g>
									<g>
										<g>
											<path fill="#48A1AF" d="M504.1,256C504.1,119,393,7.9,256,7.9C119,7.9,7.9,119,7.9,256C7.9,393,119,504.1,256,504.1
												C393,504.1,504.1,393,504.1,256z"/>
										</g>
									</g>
								</g>
							</g>
						</g>
					</g>
				</g>
			</g>
		</g>
		<polygon fill="#30302E" points="355.5,416.1 156.5,416.1 156.5,181 256,113 355.5,181 		"/>
		<g>
			<g>
				<g>
					<path fill="#9BD1DD" d="M255.7,341.3c-77.2,0-139.1,22.1-146.4,49.3c-3.3,12.2-7,35.2-10.1,57.5
						c42.7,34.9,97.4,55.9,156.9,55.9c59.5,0,114.1-21,156.9-55.9c-3.2-22.3-6.9-45.4-10.1-57.5
						C395.4,363.4,332.8,341.3,255.7,341.3z"/>
				</g>
			</g>
		</g>
		<g>
			<polygon fill="#D4D6D8" points="218.1,343.3 255.7,371.4 293.9,343.3 295.8,330.2 255.8,324.9 216.2,330.2 			"/>
		</g>
		<g>
			<path fill="#E2A379" d="M294.9,290h-77.8c12.1,36.6,1,53.3,1,53.3l26.9,12.9h22l26.9-12.9C293.9,343.3,282.8,326.6,294.9,290z"/>
			<g>
				<g>
					<g>
						<g>
							<g>
								<g>
									<g>
										<g>
											<g>
												<path fill="#F4B382" d="M335.8,183.1c0-92.4-35.7-113.6-79.8-113.6c-44,0-79.8,21.2-79.8,113.6c0,31.3,5.6,55.8,14,74.7
													c18.4,41.6,50.3,56.1,65.8,56.1s47.3-14.5,65.8-56.1C330.2,238.9,335.8,214.4,335.8,183.1z"/>
											</g>
										</g>
									</g>
								</g>
							</g>
						</g>
					</g>
				</g>
			</g>
			<path fill="#30302E" d="M355.2,183.1c0-92.4-44.4-113.6-99.2-113.6l0,0h0h0l0,0c-54.8,0-99.2,21.2-99.2,113.6
				c0,0,130.1-1.4,130.1-35.1C286.9,181.6,355.2,183.1,355.2,183.1z"/>
			<g>
				<g>
					<g>
						<path fill="#E2A379" d="M218.1,343.3c0,0,16.8,28.1,37.6,28.1s38.2-28.1,38.2-28.1l-38.2-18.4L218.1,343.3z"/>
					</g>
				</g>
			</g>
			<g>
				<path fill="#F4B382" d="M168.6,215.6c4.3,25.2,9.6,26.3,17.3,25l-8.1-54.8C170.1,187.2,164.3,190.5,168.6,215.6z"/>
				<path fill="#F4B382" d="M334.4,185.9l-8.1,54.8c7.6,1.3,13,0.1,17.3-25C347.8,190.5,342,187.2,334.4,185.9z"/>
			</g>
			<g>
				<path fill="#30302E" d="M182.7,191c-0.4-2.7-0.5-5.2-0.4-7.1c0.1-2.9,0.5-4.7,0.5-4.7l-9.4,3.5c0,1.4,0,2.9,0,4.3
					c0,0,1-0.3,2.8-0.9c-0.1,0-0.2,0.1-0.3,0.1c1.3,2.2,2.9,5.6,4.5,10.5C180.3,196.7,184,199.4,182.7,191z"/>
				<path fill="#30302E" d="M329.8,183.9c0.1,2,0,4.4-0.4,7.1c-1.3,8.4,2.3,5.7,2.3,5.7c1.5-5,3.2-8.3,4.4-10.5
					c1.6,0.6,2.5,0.8,2.5,0.8c0-1.5,0-2.9,0-4.3l-9.3-3.5C329.3,179.2,329.7,181,329.8,183.9"/>
			</g>
		</g>
		<path fill="#D6876B" d="M282.7,271.7c0,0-14.2,9.6-26.7,9.6s-26.7-9.6-26.7-9.6c0-1.4,11.3-5.3,16.1-6c3-0.5,10.6,2.5,10.6,2.5
			s7.5-2.9,10.4-2.5C271.3,266.4,282.7,271.7,282.7,271.7z"/>
		<path fill="#CC785E" d="M282.7,271.7c0,0-14.2,13.5-26.7,13.5s-26.7-13.5-26.7-13.5s6.5,1.5,19.6,0.7c2.2-0.1,5.1,1.6,7,1.6
			c1.7,0,4.2-1.8,6.1-1.7C275.8,273.1,282.7,271.7,282.7,271.7z"/>
		<path fill="#E4E9ED" d="M256.1,435.8c17.7,0,46.4-92.5,46.4-92.5l-46.8,28.4l-46.2-28.4C209.5,343.3,238.4,435.8,256.1,435.8z"/>
		<path fill="#E4E9ED" d="M313.7,345.7l-17.9-15.5L256,371.8c0,0,34-5.1,34.2-5.2L313.7,345.7z"/>
		<path fill="#E4E9ED" d="M198.3,345.7l17.9-15.5l39.8,41.6c0,0-34-5.1-34.2-5.2L198.3,345.7z"/>
		<path fill="#62A4AF" d="M204.5,340.3l-12.5,6.4l8,41.8l16.3-3.7l-12,14.7l51.7,51.4l0-15.1c0,0-34-69.2-34.2-69.3L204.5,340.3z"/>
		<path fill="#62A4AF" d="M307.5,340.3l12.5,6.4l-8,41.8l-16.3-3.7l12,14.7L256,450.9l0-15.1c0,0,34-69.2,34.2-69.3L307.5,340.3z"/>
	</g>
	<g>
		<g>
			<path fill="#D6E7F2" d="M351,458.6h-76.5v44.8c26.9-2,52.7-8.3,76.5-18.2V458.6z"/>
		</g>
		<rect x="274.5" y="457.8" fill="#556877" width="76.5" height="6.2"/>
		<g>
			<g>
				<path fill="#556877" d="M343.3,473.8h-31.2c-0.9,0-1.6-0.7-1.6-1.6c0-0.9,0.7-1.6,1.6-1.6h31.2c0.9,0,1.6,0.7,1.6,1.6
					C344.9,473.1,344.2,473.8,343.3,473.8z"/>
			</g>
			<g>
				<path fill="#556877" d="M343.3,485.7h-31.2c-0.9,0-1.6-0.7-1.6-1.6c0-0.9,0.7-1.6,1.6-1.6h31.2c0.9,0,1.6,0.7,1.6,1.6
					C344.9,484.9,344.2,485.7,343.3,485.7z"/>
			</g>
			<g>
				<path fill="#556877" d="M312.2,494.4c-0.9,0-1.6,0.7-1.6,1.6c0,0.9,0.7,1.6,1.6,1.6h0.6c4.1-1,8.2-2,12.2-3.2H312.2z"/>
			</g>
		</g>
		<rect x="280.4" y="469" fill="#556877" width="23.4" height="29.7"/>
	</g>
</g>
</svg>
