<?xml version="1.0" encoding="utf-8"?>
<!-- Generator: Adobe Illustrator 16.0.0, SVG Export Plug-In . SVG Version: 6.00 Build 0)  -->
<!DOCTYPE svg PUBLIC "-//W3C//DTD SVG 1.1//EN" "http://www.w3.org/Graphics/SVG/1.1/DTD/svg11.dtd">
<svg version="1.1" id="Layer_1" xmlns="http://www.w3.org/2000/svg" xmlns:xlink="http://www.w3.org/1999/xlink" x="0px" y="0px"
	 width="512px" height="512px" viewBox="0 0 512 512" enable-background="new 0 0 512 512" xml:space="preserve">
<g>
	<g>
		<g>
			<g>
				<g>
					<g>
						<g>
							<g>
								<g>
									<g>
										<path fill="#337180" d="M504.1,256C504.1,119,393,7.9,256,7.9C119,7.9,7.9,119,7.9,256C7.9,393,119,504.1,256,504.1
											C393,504.1,504.1,393,504.1,256z"/>
									</g>
								</g>
							</g>
						</g>
					</g>
				</g>
			</g>
		</g>
	</g>
	<g>
		<g>
			<g>
				<polygon fill="#B1B1B2" points="205.8,348.5 255.7,371.4 306.2,348.5 294.2,333 255.8,324.9 217.8,333 				"/>
			</g>
		</g>
	</g>
	<g>
		<g>
			<g>
				<path fill="#1D1D1E" d="M255.7,341.3c-77.2,0-139.1,22.1-146.4,49.3c-3.3,12.2-7,35.2-10.1,57.5c42.7,34.9,97.4,55.9,156.9,55.9
					c59.5,0,114.1-21,156.9-55.9c-3.2-22.3-6.9-45.4-10.1-57.5C395.4,363.4,332.8,341.3,255.7,341.3z"/>
			</g>
		</g>
	</g>
	<g>
		<path fill="#E2A379" d="M294.9,290h-77.8c12.1,36.6,1,53.3,1,53.3l26.9,12.9h22l26.9-12.9C293.9,343.3,282.8,326.6,294.9,290z"/>
		<g>
			<g>
				<g>
					<g>
						<g>
							<g>
								<g>
									<g>
										<g>
											<path fill="#F4B382" d="M335.8,183.1c0-92.4-35.7-113.6-79.8-113.6c-44,0-79.8,21.2-79.8,113.6c0,31.3,5.6,55.8,14,74.7
												c18.4,41.6,50.3,56.1,65.8,56.1s47.3-14.5,65.8-56.1C330.2,238.9,335.8,214.4,335.8,183.1z"/>
										</g>
									</g>
								</g>
							</g>
						</g>
					</g>
				</g>
			</g>
		</g>
		<path fill="#A02B18" d="M278.5,276c0,0-10.1,5.2-22.5,5.2s-22.5-5.2-22.5-5.2c0-1.4,7.1-9.6,11.9-10.3c3-0.5,10.6,2.5,10.6,2.5
			s7.5-2.9,10.4-2.5C271.3,266.4,278.5,276,278.5,276z"/>
		<path fill="#911B0F" d="M278.5,276c0,0-10.1,9.1-22.5,9.1s-22.5-9.1-22.5-9.1s2.3-2.8,15.5-3.6c2.2-0.1,5.1,1.6,7,1.6
			c1.7,0,4.2-1.8,6.1-1.7C275.8,273.1,278.5,276,278.5,276z"/>
		<g>
			<g>
				<g>
					<path fill="#E2A379" d="M218.1,343.3c0,0,16.8,93.2,37.6,93.2s38.2-93.2,38.2-93.2l-38.2-18.4L218.1,343.3z"/>
				</g>
			</g>
		</g>
		<path fill="#D39409" d="M302.8,338.3c-8.6,11.1-33.7,39.9-46.8,39.9s-38.3-28.8-46.8-39.9l-6.3,4.9c3.4,4.4,33.7,43.1,53.2,43.1
			s49.8-38.7,53.2-43.1L302.8,338.3z"/>
		<polygon fill="#D39409" points="256,382.3 250.1,391.8 256,401.2 261.9,391.8 		"/>
		<g>
			<polygon fill="#D39409" points="264.1,379.3 260.4,385.4 264.1,391.4 267.9,385.4 			"/>
			<polygon fill="#D39409" points="247.9,379.3 244.1,385.4 247.9,391.4 251.6,385.4 			"/>
		</g>
		<g>
			<path fill="#F4B382" d="M168.6,215.6c4.3,25.2,9.6,26.3,17.3,25l-8.1-54.8C170.1,187.2,164.3,190.5,168.6,215.6z"/>
			<path fill="#F4B382" d="M334.4,185.9l-8.1,54.8c7.6,1.3,13,0.1,17.3-25C347.8,190.5,342,187.2,334.4,185.9z"/>
		</g>
		<ellipse fill="#4C230C" cx="256" cy="74" rx="42" ry="28.7"/>
		<path fill="#4C230C" d="M338.7,187c0-92.4-25.3-117.5-82.7-117.5S173.3,94.6,173.3,187c0,0,122.7-26.5,122.7-60.1
			C296,160.5,338.7,187,338.7,187z"/>
		<g>
			<path fill="#4C230C" d="M182.7,191c-0.4-2.7-0.5-5.2-0.4-7.1c0.1-2.9,0.5-4.7,0.5-4.7l-9.4,3.5c0,1.4,0,2.9,0,4.3
				c0,0,1-0.3,2.8-0.9c-0.1,0-0.2,0.1-0.3,0.1c1.3,2.2,2.9,5.6,4.5,10.5C180.3,196.7,184,199.4,182.7,191z"/>
			<path fill="#4C230C" d="M329.8,183.9c0.1,2,0,4.4-0.4,7.1c-1.3,8.4,2.3,5.7,2.3,5.7c1.5-5,3.2-8.3,4.4-10.5
				c1.6,0.6,2.5,0.8,2.5,0.8c0-1.5,0-2.9,0-4.3l-9.3-3.5C329.3,179.2,329.7,181,329.8,183.9"/>
		</g>
	</g>
	<polygon fill="#D39409" points="334.5,231.3 328.7,240.8 334.5,250.2 340.4,240.8 	"/>
	<polygon fill="#D39409" points="177.4,231.3 171.5,240.8 177.4,250.2 183.2,240.8 	"/>
	<path fill="#C9C9C9" d="M217.8,333L192,346.7l8,42.3l16.3-3.7l-12,14.7l51.7,66.4l0-46.1c0,0-32.4-53.7-32.6-53.8L217.8,333z"/>
	<path fill="#C9C9C9" d="M294.2,333l25.8,13.7l-8,42.3l-16.3-3.7l12,14.7L256,466.4l0-46.1c0,0,32.4-53.7,32.6-53.8L294.2,333z"/>
</g>
</svg>
