<?xml version="1.0" encoding="utf-8"?>
<!-- Generator: Adobe Illustrator 16.0.0, SVG Export Plug-In . SVG Version: 6.00 Build 0)  -->
<!DOCTYPE svg PUBLIC "-//W3C//DTD SVG 1.1//EN" "http://www.w3.org/Graphics/SVG/1.1/DTD/svg11.dtd">
<svg version="1.1" id="Layer_1" xmlns="http://www.w3.org/2000/svg" xmlns:xlink="http://www.w3.org/1999/xlink" x="0px" y="0px"
	 width="512px" height="512px" viewBox="0 0 512 512" enable-background="new 0 0 512 512" xml:space="preserve">
<g>
	<g>
		<g>
			<g>
				<g>
					<g>
						<g>
							<g>
								<g>
									<g>
										<path fill="#4ABC96" d="M504.1,256C504.1,119,393,7.9,256,7.9C119,7.9,7.9,119,7.9,256C7.9,393,119,504.1,256,504.1
											C393,504.1,504.1,393,504.1,256z"/>
									</g>
								</g>
							</g>
						</g>
					</g>
				</g>
			</g>
		</g>
	</g>
	<g>
		<g>
			<g>
				<path fill="#1D1D1E" d="M256,504.1c70.2,0,133.6-29.2,178.7-76c-2.8-15.1-5.6-28.9-8.3-37.4c-8.5-27.3-81.2-49.3-170.8-49.3
					S94.1,363.4,85.6,390.7c-2.6,8.5-5.5,22.2-8.3,37.4C122.4,474.9,185.8,504.1,256,504.1z"/>
			</g>
		</g>
	</g>
	<g>
		<g>
			<path fill="#D6E7F2" d="M351,458.6h-76.5v44.8c26.9-2,52.7-8.3,76.5-18.2V458.6z"/>
		</g>
		<rect x="274.5" y="457.8" fill="#556877" width="76.5" height="6.2"/>
		<g>
			<g>
				<path fill="#556877" d="M343.3,473.8h-31.2c-0.9,0-1.6-0.7-1.6-1.6c0-0.9,0.7-1.6,1.6-1.6h31.2c0.9,0,1.6,0.7,1.6,1.6
					C344.9,473.1,344.2,473.8,343.3,473.8z"/>
			</g>
			<g>
				<path fill="#556877" d="M343.3,485.7h-31.2c-0.9,0-1.6-0.7-1.6-1.6c0-0.9,0.7-1.6,1.6-1.6h31.2c0.9,0,1.6,0.7,1.6,1.6
					C344.9,484.9,344.2,485.7,343.3,485.7z"/>
			</g>
			<g>
				<path fill="#556877" d="M312.2,494.4c-0.9,0-1.6,0.7-1.6,1.6c0,0.9,0.7,1.6,1.6,1.6h0.6c4.1-1,8.2-2,12.2-3.2H312.2z"/>
			</g>
		</g>
		<rect x="280.4" y="469" fill="#556877" width="23.4" height="29.7"/>
	</g>
	<path fill="#D4D6D8" d="M256.1,451.3c19.6,0,41.7-108,41.7-108l-42.2,26.7l-41.5-26.7C214.2,343.3,236.5,451.3,256.1,451.3z"/>
	<g>
		<polygon fill="#D4D6D8" points="218.1,343.3 255.7,371.4 293.9,343.3 295.8,330.2 255.8,324.9 216.2,330.2 		"/>
	</g>
	<path fill="#E2A379" d="M294.9,290h-77.8c12.1,36.6,1,53.3,1,53.3l26.9,6.1h22l26.9-6.1C293.9,343.3,282.8,326.6,294.9,290z"/>
	<g>
		<polygon fill="#F3FAFF" points="290,366.7 295.8,330.2 313.7,345.7 		"/>
	</g>
	<g>
		<polygon fill="#F3FAFF" points="222,366.7 216.2,330.2 198.3,345.7 		"/>
	</g>
	<path fill="#F3FAFF" d="M313.7,345.7l-17.9-15.5L256,349.4c0,0,34,17.3,34.2,17.1L313.7,345.7z"/>
	<path fill="#F3FAFF" d="M198.3,345.7l17.9-15.5l39.8,19.2c0,0-34,17.3-34.2,17.1L198.3,345.7z"/>
	<polygon fill="#86B4D1" points="256,349.4 240.2,357.3 256,382.9 271.7,357.3 	"/>
	<g>
		<path fill="#86B4D1" d="M256.1,451.3c5.1,0,10.4-11.5,15.3-27.9L260,369.8h-8.1l-11.3,53.3C245.6,439.7,251,451.3,256.1,451.3z"/>
	</g>
	<path fill="#4A4A54" d="M204.5,340.3l-12.5,6.4l8,55.3l16.3-3.7l-12,14.7l51.7,53.4l0-15.1c0,0-34-84.7-34.2-84.8L204.5,340.3z"/>
	<path fill="#4A4A54" d="M307.5,340.3l12.5,6.4l-8,55.3l-16.3-3.7l12,14.7L256,466.4l0-15.1c0,0,34-84.7,34.2-84.8L307.5,340.3z"/>
	<g>
		<g>
			<g>
				<g>
					<g>
						<g>
							<g>
								<g>
									<g>
										<path fill="#F4B382" d="M344.3,183.1c0-92.4-39.5-113.6-88.3-113.6c-48.7,0-88.3,21.2-88.3,113.6
											c0,31.3,6.2,55.8,15.5,74.7c20.4,41.6,55.7,56.1,72.8,56.1s52.4-14.5,72.8-56.1C338.1,238.9,344.3,214.4,344.3,183.1z"/>
									</g>
								</g>
							</g>
						</g>
					</g>
				</g>
			</g>
		</g>
	</g>
	<g>
		<path fill="#D89364" d="M282,273.2c0,2.3-11.6,8.6-26,8.6s-26-6.3-26-8.6c0-1.4,8.3-5.5,13.8-6.2c3.5-0.5,12.2,2.6,12.2,2.6
			s8.6-3.1,12.1-2.6C273.7,267.7,282,273.2,282,273.2z"/>
		<path fill="#CE8757" d="M282,273.2c0,2.3-11.6,11.2-26,11.2s-26-8.9-26-11.2c0,0,10.6,1.1,26,1.1S282,273.2,282,273.2z"/>
	</g>
	<path fill="#F4B382" d="M178.3,246.6c-8.4,1.4-14.4,0.1-19.1-27.7s1.7-31.5,10.1-32.9L178.3,246.6z"/>
	<g>
		<g>
			<g>
				<g>
					<g>
						<g>
							<g>
								<g>
									<g>
										<path fill="#51250D" d="M344.3,186.2c11.4-22.8,8.4-43.1,2.7-56.5c-9.3-22-21.1-28.6-21.1-28.6
											C318.3,76.3,284.4,68,256,68c-48.7,0-95,25.7-88.3,118.2l20.3-3.4c0-2.6,97-58.8,97-58.8c9.7,5.7,25,2,25,2
											c0-3.8,14.1,56.8,14.1,56.8L344.3,186.2z"/>
									</g>
								</g>
							</g>
						</g>
					</g>
				</g>
			</g>
		</g>
	</g>
	<g>
		<g>
			<g>
				<g>
					<g>
						<g>
							<g>
								<g>
									<g>
										<path fill="#51250D" d="M173.4,148.7c-4.2,10.9-5.6,24.4-5.6,37.5c0,0,8.8-1.9,8.8,2.6l2.8,27.6l3.9-1.9
											c-0.2-23,4.9-31.8,4.9-31.8L173.4,148.7z"/>
									</g>
								</g>
							</g>
						</g>
					</g>
				</g>
			</g>
		</g>
	</g>
	<path fill="#F4B382" d="M333.8,246.6c8.4,1.4,14.3,0.1,19.1-27.7c4.8-27.8-1.7-31.5-10.1-32.9L333.8,246.6z"/>
	<g>
		<g>
			<g>
				<g>
					<g>
						<g>
							<g>
								<g>
									<g>
										<path fill="#51250D" d="M338.7,148.7c4.2,10.9,5.6,24.4,5.6,37.5c0,0-8.8-1.9-8.8,2.6l-2.8,27.6l-3.9-1.9
											c0.2-23-4.9-31.8-4.9-31.8L338.7,148.7z"/>
									</g>
								</g>
							</g>
						</g>
					</g>
				</g>
			</g>
		</g>
	</g>
</g>
</svg>
