<?xml version="1.0" encoding="utf-8"?>
<!-- Generator: Adobe Illustrator 16.0.0, SVG Export Plug-In . SVG Version: 6.00 Build 0)  -->
<!DOCTYPE svg PUBLIC "-//W3C//DTD SVG 1.1//EN" "http://www.w3.org/Graphics/SVG/1.1/DTD/svg11.dtd">
<svg version="1.1" id="Layer_1" xmlns="http://www.w3.org/2000/svg" xmlns:xlink="http://www.w3.org/1999/xlink" x="0px" y="0px"
	 width="512px" height="512px" viewBox="0 0 512 512" enable-background="new 0 0 512 512" xml:space="preserve">
<g>
	<g>
		<g>
			<g>
				<g>
					<g>
						<g>
							<g>
								<g>
									<g>
										<path fill="#F47C2C" d="M504.1,256C504.1,119,393,7.9,256,7.9C119,7.9,7.9,119,7.9,256C7.9,393,119,504.1,256,504.1
											C393,504.1,504.1,393,504.1,256z"/>
									</g>
								</g>
							</g>
						</g>
					</g>
				</g>
			</g>
		</g>
	</g>
	<g>
		<g>
			<g>
				<path fill="#C7C8C9" d="M255.7,341.3c-77.2,0-139.1,22.1-146.4,49.3c-3.3,12.2-7,35.2-10.1,57.5c42.7,34.9,97.4,55.9,156.9,55.9
					c59.5,0,114.1-21,156.9-55.9c-3.2-22.3-6.9-45.4-10.1-57.5C395.4,363.4,332.8,341.3,255.7,341.3z"/>
			</g>
		</g>
	</g>
	<g>
		<polygon fill="#D4D6D8" points="218.1,343.3 255.7,371.4 293.9,343.3 295.8,330.2 255.8,324.9 216.2,330.2 		"/>
	</g>
	<path fill="#30302E" d="M386,287.2c0,0-51.3,32.4-130,32.4V69.5c46.7,0,63,14.7,76.3,40.2C346.7,137,386,287.2,386,287.2z"/>
	<path fill="#30302E" d="M126.7,287.2c0,0,51.3,32.4,130,32.4V69.5c-46.7,0-63,14.7-76.3,40.2C166,137,126.7,287.2,126.7,287.2z"/>
	<g>
		<path fill="#8E502E" d="M294.9,290h-77.8c12.1,36.6,1,53.3,1,53.3l26.9,12.9h22l26.9-12.9C293.9,343.3,282.8,326.6,294.9,290z"/>
		<g>
			<g>
				<g>
					<g>
						<g>
							<g>
								<g>
									<g>
										<g>
											<g>
												<path fill="#9B5C32" d="M335.8,183.1c0-92.4-35.7-113.6-79.8-113.6c-44,0-79.8,21.2-79.8,113.6c0,31.3,5.6,55.8,14,74.7
													c18.4,41.6,50.3,56.1,65.8,56.1s47.3-14.5,65.8-56.1C330.2,238.9,335.8,214.4,335.8,183.1z"/>
											</g>
										</g>
									</g>
								</g>
							</g>
						</g>
					</g>
				</g>
			</g>
		</g>
		<path fill="#30302E" d="M256,69.5c-48.7,0-82.7,25.6-82.7,118c0,0,82.7-45.9,82.7-79.5L256,69.5z"/>
		<path fill="#30302E" d="M255.9,69.5c48.7,0,82.7,25.6,82.7,118c0,0-82.7-45.9-82.7-79.5L255.9,69.5z"/>
		<path fill="#844A2C" d="M278.5,276c0,0-10.1,5.2-22.5,5.2s-22.5-5.2-22.5-5.2c0-1.4,7.1-9.6,11.9-10.3c3-0.5,10.6,2.5,10.6,2.5
			s7.5-2.9,10.4-2.5C271.3,266.4,278.5,276,278.5,276z"/>
		<path fill="#7A4229" d="M278.5,276c0,0-10.1,9.1-22.5,9.1s-22.5-9.1-22.5-9.1s2.3-2.8,15.5-3.6c2.2-0.1,5.1,1.6,7,1.6
			c1.7,0,4.2-1.8,6.1-1.7C275.8,273.1,278.5,276,278.5,276z"/>
		<g>
			<path fill="#8E502E" d="M218.1,343.3c0,0,16.8,28.1,37.6,28.1s38.2-28.1,38.2-28.1l-38.2-18.4L218.1,343.3z"/>
		</g>
		<g>
			<path fill="#9B5C32" d="M168.6,215.6c4.3,25.2,9.6,26.3,17.3,25l-8.1-54.8C170.1,187.2,164.3,190.5,168.6,215.6z"/>
			<path fill="#9B5C32" d="M334.4,185.9l-8.1,54.8c7.6,1.3,13,0.1,17.3-25C347.8,190.5,342,187.2,334.4,185.9z"/>
		</g>
		<g>
			<path fill="#30302E" d="M182.7,191c-0.4-2.7-0.5-5.2-0.4-7.1c0.1-2.9,0.5-4.7,0.5-4.7l-9.4,3.5c0,1.4,0,2.9,0,4.3
				c0,0,1-0.3,2.8-0.9c-0.1,0-0.2,0.1-0.3,0.1c1.3,2.2,2.9,5.6,4.5,10.5C180.3,196.7,184,199.4,182.7,191z"/>
			<path fill="#30302E" d="M329.8,183.9c0.1,2,0,4.4-0.4,7.1c-1.3,8.4,2.3,5.7,2.3,5.7c1.5-5,3.2-8.3,4.4-10.5
				c1.6,0.6,2.5,0.8,2.5,0.8c0-1.5,0-2.9,0-4.3l-9.3-3.5C329.3,179.2,329.7,181,329.8,183.9"/>
		</g>
	</g>
	<path fill="#C7C8C9" d="M256.3,451.3c19.5,0,41.5-108,41.5-108l-41.9,12.9l-41.3-12.9C214.6,343.3,236.8,451.3,256.3,451.3z"/>
	<polygon fill="#4A4A54" points="256,356.2 240.2,359.8 256,382.9 271.7,359.8 	"/>
	<g>
		<path fill="#4A4A54" d="M280.9,502.8c-1-24.3-4-72.4-6-94.5c-2-22.6-15.4-38.5-15.4-38.5H256l0,0.7v-0.7h-3.5
			c0,0-13.4,15.9-15.4,38.5c-2,22-5,70.2-6,94.5c8.2,0.8,16.5,1.3,24.9,1.3C264.4,504.1,272.7,503.6,280.9,502.8z"/>
	</g>
	<path fill="#F3FAFF" d="M313.7,345.7l-17.9-15.5L256,356.2c0,0,34,10.4,34.2,10.3L313.7,345.7z"/>
	<path fill="#F3FAFF" d="M198.3,345.7l17.9-15.5l39.8,26.1c0,0-34,10.4-34.2,10.3L198.3,345.7z"/>
</g>
</svg>
