<?xml version="1.0" encoding="utf-8"?>
<!-- Generator: Adobe Illustrator 16.0.0, SVG Export Plug-In . SVG Version: 6.00 Build 0)  -->
<!DOCTYPE svg PUBLIC "-//W3C//DTD SVG 1.1//EN" "http://www.w3.org/Graphics/SVG/1.1/DTD/svg11.dtd">
<svg version="1.1" id="Layer_1" xmlns="http://www.w3.org/2000/svg" xmlns:xlink="http://www.w3.org/1999/xlink" x="0px" y="0px"
	 width="512px" height="512px" viewBox="0 0 512 512" enable-background="new 0 0 512 512" xml:space="preserve">
<g>
	<g>
		<g>
			<g>
				<path fill="#EDBF00" d="M7.9,256C7.9,119,119,7.9,256,7.9C393,7.9,504.1,119,504.1,256c0,137-111.1,248.1-248.1,248.1
					C119,504.1,7.9,393,7.9,256z"/>
			</g>
		</g>
	</g>
	<g>
		<g>
			<path fill="#202121" d="M350.8,397.3c0,22.8-8.2,30.9-30.9,30.9H196.1c-22.8,0-30.9-8.2-30.9-30.9V108.6
				c0-22.8,8.2-30.9,30.9-30.9h123.7c22.8,0,30.9,8.2,30.9,30.9V397.3z"/>
			<g>
				<path d="M277.3,89.4c0,1.3-1.5,2.3-3.4,2.3h-30.2c-1.9,0-3.4-1-3.4-2.3l0,0c0-1.3,1.5-2.3,3.4-2.3h30.2
					C275.8,87,277.3,88.1,277.3,89.4L277.3,89.4z"/>
				<path d="M284.9,89.6c0,1.4-1.2,2.6-2.6,2.6s-2.6-1.2-2.6-2.6c0-1.4,1.2-2.6,2.6-2.6S284.9,88.1,284.9,89.6z"/>
				<path d="M291.8,89.6c0,1.4-1.2,2.6-2.6,2.6s-2.6-1.2-2.6-2.6c0-1.4,1.2-2.6,2.6-2.6S291.8,88.1,291.8,89.6z"/>
				<path d="M317.4,90.6c0,1.9-1.5,3.5-3.5,3.5c-1.9,0-3.5-1.6-3.5-3.5c0-1.9,1.6-3.5,3.5-3.5C315.8,87.2,317.4,88.7,317.4,90.6z"/>
			</g>
			<path fill="none" stroke="#121212" stroke-miterlimit="10" d="M276.9,411.6c0,3.5-2.1,6.3-4.8,6.3h-27.9c-2.6,0-4.7-2.8-4.7-6.3
				v-4.5c0-3.5,2.1-6.3,4.7-6.3h27.9c2.6,0,4.8,2.8,4.8,6.3V411.6z"/>
			<linearGradient id="SVGID_1_" gradientUnits="userSpaceOnUse" x1="257.5918" y1="111.1602" x2="257.5918" y2="391.3076">
				<stop  offset="0" style="stop-color:#5978BA"/>
				<stop  offset="0.703" style="stop-color:#4E9DB8"/>
				<stop  offset="1" style="stop-color:#379CC9"/>
			</linearGradient>
			<rect x="173.8" y="111.2" fill="url(#SVGID_1_)" width="167.6" height="280.1"/>
			<g>
				<path fill="#FFFFFF" d="M262.7,326.3c0,2.6-2.1,4.7-4.7,4.7c-2.6,0-4.7-2.1-4.7-4.7c0-2.6,2.1-4.7,4.7-4.7
					C260.6,321.6,262.7,323.7,262.7,326.3z"/>
				<path fill="#FFFFFF" d="M278.2,326.3c0,1.7-1.3,3-3,3s-3-1.3-3-3c0-1.7,1.3-3,3-3S278.2,324.6,278.2,326.3z"/>
				<path fill="#FFFFFF" d="M291.9,326.3c0,1.7-1.3,3-3,3s-3-1.3-3-3c0-1.7,1.3-3,3-3S291.9,324.6,291.9,326.3z"/>
				<path fill="#FFFFFF" d="M230,326.3c0,1.7-1.3,3-3,3s-3-1.3-3-3c0-1.7,1.4-3,3-3S230,324.6,230,326.3z"/>
				<path fill="#FFFFFF" d="M243.8,326.3c0,1.7-1.3,3-3,3s-3-1.3-3-3c0-1.7,1.3-3,3-3S243.8,324.6,243.8,326.3z"/>
			</g>
			<rect x="173.8" y="111.2" opacity="0.5" fill="#202121" width="167.5" height="14"/>
			<path fill="#FFFFFF" d="M319.8,117.8c0,2-1.6,3.6-3.6,3.6s-3.6-1.6-3.6-3.6c0-2,1.6-3.6,3.6-3.6S319.8,115.8,319.8,117.8z"/>
			<path fill="#FFFFFF" d="M186,117.8c0,2-1.6,3.6-3.6,3.6s-3.6-1.6-3.6-3.6c0-2,1.6-3.6,3.6-3.6S186,115.8,186,117.8z"/>
			<path fill="#FFFFFF" d="M336.1,117.8c0,2-1.6,3.6-3.6,3.6s-3.6-1.6-3.6-3.6c0-2,1.6-3.6,3.6-3.6S336.1,115.8,336.1,117.8z"/>
			<g>
				<defs>
					<rect id="SVGID_42_" x="173.8" y="111.2" width="167.6" height="280.1"/>
				</defs>
				<clipPath id="SVGID_2_">
					<use xlink:href="#SVGID_42_"  overflow="visible"/>
				</clipPath>
			</g>
			<g>
				<path fill="#B5DBAF" d="M214.9,300.6c0,3.2-2.6,5.8-5.8,5.8h-16.9c-3.2,0-5.8-2.6-5.8-5.8v-16.9c0-3.2,2.6-5.8,5.8-5.8h16.9
					c3.2,0,5.8,2.6,5.8,5.8V300.6z"/>
				<path fill="#F6A2A3" d="M253.1,300.6c0,3.2-2.6,5.8-5.8,5.8h-16.9c-3.2,0-5.8-2.6-5.8-5.8v-16.9c0-3.2,2.6-5.8,5.8-5.8h16.9
					c3.2,0,5.8,2.6,5.8,5.8V300.6z"/>
				<path fill="#67B8CB" d="M291.3,300.6c0,3.2-2.6,5.8-5.8,5.8h-16.9c-3.2,0-5.8-2.6-5.8-5.8v-16.9c0-3.2,2.6-5.8,5.8-5.8h16.9
					c3.2,0,5.8,2.6,5.8,5.8V300.6z"/>
				<path fill="#F5E554" d="M329.6,300.6c0,3.2-2.6,5.8-5.8,5.8h-16.9c-3.2,0-5.8-2.6-5.8-5.8v-16.9c0-3.2,2.6-5.8,5.8-5.8h16.9
					c3.2,0,5.8,2.6,5.8,5.8V300.6z"/>
			</g>
			<g>
				<defs>
					<path id="SVGID_44_" d="M329.1,221.5c0,3.2-2.6,5.8-5.8,5.8H193.1c-3.2,0-5.8-2.6-5.8-5.8v-75.3c0-3.2,2.6-5.8,5.8-5.8h130.3
						c3.2,0,5.8,2.6,5.8,5.8V221.5z"/>
				</defs>
				<clipPath id="SVGID_3_">
					<use xlink:href="#SVGID_44_"  overflow="visible"/>
				</clipPath>
			</g>
			<path fill="none" stroke="#67B8CB" stroke-width="0.5" stroke-miterlimit="10" d="M329.1,252.5c0,3.2-2.6,5.8-5.8,5.8H193.1
				c-3.2,0-5.8-2.6-5.8-5.8v-6.6c0-3.2,2.6-5.8,5.8-5.8h130.3c3.2,0,5.8,2.6,5.8,5.8V252.5z"/>
			<g>
				<path fill="#DBF0F5" d="M318.7,244.3c1.7,1.7,1.7,4.4,0,6.1c-1.7,1.7-4.4,1.7-6.1,0c-1.7-1.7-1.7-4.4,0-6.1
					C314.3,242.7,317,242.7,318.7,244.3z"/>
				<path fill="#DBF0F5" d="M323.4,255.2c-0.3,0.3-1,0.2-1.4-0.2l-4.8-4.8c-0.4-0.4-0.5-1.1-0.2-1.4l0.4-0.4c0.3-0.3,1-0.2,1.4,0.2
					l4.8,4.8c0.5,0.5,0.6,1.1,0.2,1.4L323.4,255.2z"/>
			</g>
			<g>
				<path fill="#67B8CB" d="M208.3,365.1c0,2.6-2.1,4.7-4.7,4.7h-13.7c-2.6,0-4.7-2.1-4.7-4.7v-13.7c0-2.6,2.1-4.7,4.7-4.7h13.7
					c2.6,0,4.7,2.1,4.7,4.7V365.1z"/>
				<path fill="#F5E554" d="M239.4,365.1c0,2.6-2.1,4.7-4.7,4.7H221c-2.6,0-4.7-2.1-4.7-4.7v-13.7c0-2.6,2.1-4.7,4.7-4.7h13.7
					c2.6,0,4.7,2.1,4.7,4.7V365.1z"/>
				<path fill="#B5DBAF" d="M270.6,365.1c0,2.6-2.1,4.7-4.7,4.7h-13.7c-2.6,0-4.7-2.1-4.7-4.7v-13.7c0-2.6,2.1-4.7,4.7-4.7h13.7
					c2.6,0,4.7,2.1,4.7,4.7V365.1z"/>
				<path fill="#D3D4E3" d="M301.7,365.1c0,2.6-2.1,4.7-4.7,4.7h-13.7c-2.6,0-4.7-2.1-4.7-4.7v-13.7c0-2.6,2.1-4.7,4.7-4.7H297
					c2.6,0,4.7,2.1,4.7,4.7V365.1z"/>
				<path fill="#F6A2A3" d="M332.7,365.1c0,2.6-2.1,4.7-4.7,4.7h-13.7c-2.6,0-4.7-2.1-4.7-4.7v-13.7c0-2.6,2.1-4.7,4.7-4.7H328
					c2.6,0,4.7,2.1,4.7,4.7V365.1z"/>
			</g>
		</g>
	</g>
	<g>
		<path fill="#6CC077" d="M193.1,227.3h130.3c3.2,0,5.8-2.6,5.8-5.8v-21l-10.8-10.8c0,0-6.1-7.9-11.8-7.6c-5.1,0.3-11.1,6.7-12.3,8
			l-7.2-7.2c0,0-7.2-9.3-13.8-8.9c-6.7,0.4-14.7,9.7-14.7,9.7l-2.2,2.2l-13.5-13.5c0,0-8.8-11.4-17-10.9s-18,11.9-18,11.9L187.3,194
			v27.5C187.3,224.7,189.9,227.3,193.1,227.3z"/>
		<path fill="#DBF0F5" d="M225.9,161.6c8.2-0.5,17,10.9,17,10.9l13.5,13.5l2.2-2.2c0,0,8-9.3,14.7-9.7c6.7-0.4,13.8,8.9,13.8,8.9
			l7.2,7.2c1.1-1.3,7.1-7.7,12.3-8c5.7-0.3,11.8,7.6,11.8,7.6l10.8,10.8v-54.3c0-3.2-2.6-5.8-5.8-5.8H193.1c-3.2,0-5.8,2.6-5.8,5.8
			V194l20.6-20.6C207.9,173.4,217.7,162,225.9,161.6z"/>
	</g>
</g>
</svg>
