<?xml version="1.0" encoding="utf-8"?>
<!-- Generator: Adobe Illustrator 16.0.0, SVG Export Plug-In . SVG Version: 6.00 Build 0)  -->
<!DOCTYPE svg PUBLIC "-//W3C//DTD SVG 1.1//EN" "http://www.w3.org/Graphics/SVG/1.1/DTD/svg11.dtd">
<svg version="1.1" id="Layer_1" xmlns="http://www.w3.org/2000/svg" xmlns:xlink="http://www.w3.org/1999/xlink" x="0px" y="0px"
	 width="512px" height="512px" viewBox="0 0 512 512" enable-background="new 0 0 512 512" xml:space="preserve">
<g>
	<g>
		<g>
			<g>
				<g>
					<g>
						<g>
							<path fill="#337180" d="M504.1,256C504.1,119,393,7.9,256,7.9C119,7.9,7.9,119,7.9,256C7.9,393,119,504.1,256,504.1
								C393,504.1,504.1,393,504.1,256z"/>
						</g>
					</g>
				</g>
			</g>
		</g>
	</g>
	<g>
		<path fill="#B5E3EA" d="M377.8,115.1h-34.5c-3.2,0-5.7,2.6-5.7,5.7v270.3c0,3.2,2.6,5.7,5.7,5.7h34.5c3.2,0,5.7-2.6,5.7-5.7V120.9
			C383.6,117.7,381,115.1,377.8,115.1z"/>
		<g>
			<path fill="#48A1AF" d="M399.6,239.3v-34.5c0-3.2-2.6-5.7-5.7-5.7h-66.7c-3.2,0-5.8,2.6-5.8,5.7v34.5c0,3.2,2.6,5.7,5.8,5.7h66.7
				C397.1,245.1,399.6,242.5,399.6,239.3z"/>
			<path fill="#E9FCFF" d="M393.9,249.4h-66.7c-5.6,0-10.1-4.5-10.1-10.1v-34.5c0-5.6,4.5-10.1,10.1-10.1h66.7
				c5.6,0,10.1,4.5,10.1,10.1v34.5C404,244.9,399.5,249.4,393.9,249.4z M327.2,203.4c-0.8,0-1.4,0.6-1.4,1.4v34.5
				c0,0.8,0.6,1.4,1.4,1.4h66.7c0.8,0,1.4-0.6,1.4-1.4v-34.5c0-0.8-0.6-1.4-1.4-1.4H327.2z"/>
		</g>
	</g>
	<g>
		<path fill="#B5E3EA" d="M276,115.1h-34.5c-3.2,0-5.7,2.6-5.7,5.7v270.3c0,3.2,2.6,5.7,5.7,5.7H276c3.2,0,5.7-2.6,5.7-5.7V120.9
			C281.8,117.7,279.2,115.1,276,115.1z"/>
		<g>
			<path fill="#48A1AF" d="M297.8,341.1v-34.5c0-3.2-2.6-5.7-5.8-5.7h-66.7c-3.2,0-5.8,2.6-5.8,5.7v34.5c0,3.2,2.6,5.7,5.8,5.7h66.7
				C295.3,346.9,297.8,344.3,297.8,341.1z"/>
			<path fill="#E9FCFF" d="M292.1,351.2h-66.7c-5.6,0-10.1-4.5-10.1-10.1v-34.5c0-5.6,4.5-10.1,10.1-10.1h66.7
				c5.6,0,10.1,4.5,10.1,10.1v34.5C302.2,346.7,297.7,351.2,292.1,351.2z M225.4,305.2c-0.8,0-1.4,0.6-1.4,1.4v34.5
				c0,0.8,0.6,1.4,1.4,1.4h66.7c0.8,0,1.4-0.6,1.4-1.4v-34.5c0-0.8-0.6-1.4-1.4-1.4H225.4z"/>
		</g>
	</g>
	<g>
		<path fill="#B5E3EA" d="M174.2,115.1h-34.5c-3.2,0-5.7,2.6-5.7,5.7v270.3c0,3.2,2.6,5.7,5.7,5.7h34.5c3.2,0,5.7-2.6,5.7-5.7V120.9
			C180,117.7,177.4,115.1,174.2,115.1z"/>
		<g>
			<path fill="#48A1AF" d="M196,171.4v-34.5c0-3.2-2.6-5.7-5.7-5.7h-66.7c-3.2,0-5.7,2.6-5.7,5.7v34.5c0,3.2,2.6,5.7,5.7,5.7h66.7
				C193.5,177.2,196,174.6,196,171.4z"/>
			<path fill="#E9FCFF" d="M190.3,181.6h-66.7c-5.6,0-10.1-4.5-10.1-10.1v-34.5c0-5.6,4.5-10.1,10.1-10.1h66.7
				c5.6,0,10.1,4.5,10.1,10.1v34.5C200.4,177,195.9,181.6,190.3,181.6z M123.6,135.6c-0.8,0-1.4,0.6-1.4,1.4v34.5
				c0,0.8,0.6,1.4,1.4,1.4h66.7c0.8,0,1.4-0.6,1.4-1.4v-34.5c0-0.8-0.6-1.4-1.4-1.4H123.6z"/>
		</g>
	</g>
</g>
</svg>
