<?xml version="1.0" encoding="utf-8"?>
<!-- Generator: Adobe Illustrator 16.0.0, SVG Export Plug-In . SVG Version: 6.00 Build 0)  -->
<!DOCTYPE svg PUBLIC "-//W3C//DTD SVG 1.1//EN" "http://www.w3.org/Graphics/SVG/1.1/DTD/svg11.dtd">
<svg version="1.1" id="Layer_1" xmlns="http://www.w3.org/2000/svg" xmlns:xlink="http://www.w3.org/1999/xlink" x="0px" y="0px"
	 width="512px" height="512px" viewBox="0 0 512 512" enable-background="new 0 0 512 512" xml:space="preserve">
<g>
	<g>
		<g>
			<path fill="#48A1AF" d="M256,7.9C119,7.9,7.9,119,7.9,256C7.9,393,119,504.1,256,504.1c137,0,248.1-111.1,248.1-248.1
				C504.1,119,393,7.9,256,7.9z"/>
		</g>
	</g>
	<g>
		<g>
			<g>
				<g>
					<g>
						<g>
							<g>
								<g>
									<g>
										<linearGradient id="SVGID_1_" gradientUnits="userSpaceOnUse" x1="208.9355" y1="366.9517" x2="303.0654" y2="366.9517">
											<stop  offset="0" style="stop-color:#47474A"/>
											<stop  offset="0.6196" style="stop-color:#616268"/>
											<stop  offset="1" style="stop-color:#6D6E75"/>
										</linearGradient>
										<path fill="url(#SVGID_1_)" d="M290.8,374.2l0.2-33.5c0-2.9-2.4-5.3-5.3-5.3h-59.5c-2.9,0-5.3,2.4-5.3,5.3l0.2,33.4
											l-12.3,18.5v3.6c0,2.9,2.4,2.2,5.3,2.2h83.6c2.9,0,5.3,0.7,5.3-2.2v-3.6L290.8,374.2z"/>
									</g>
								</g>
								<g>
									<g>
										<linearGradient id="SVGID_2_" gradientUnits="userSpaceOnUse" x1="256.001" y1="332.4038" x2="256.001" y2="394.916">
											<stop  offset="0.1152" style="stop-color:#737377"/>
											<stop  offset="0.1889" style="stop-color:#707073"/>
											<stop  offset="0.497" style="stop-color:#656766"/>
											<stop  offset="0.6242" style="stop-color:#4D4D51"/>
											<stop  offset="1" style="stop-color:#343439"/>
										</linearGradient>
										<path fill="url(#SVGID_2_)" d="M290.8,371.2l0.2-33.5c0-2.9-2.4-5.3-5.3-5.3h-59.5c-2.9,0-5.3,2.3-5.3,5.3l0.2,33.4
											l-12.3,21.5c0,2.9,2.4,2.2,5.3,2.2h83.6c2.9,0,5.3,0.7,5.3-2.2L290.8,371.2z"/>
									</g>
								</g>
							</g>
							<g>
								<g>
									<g>
										<g>
											<path fill="#08090B" d="M401.9,113.5H110.1c-10.9,0-19.8,8.9-19.8,19.8v195.3c0,10.9,8.9,19.8,19.8,19.8h291.8
												c10.9,0,19.8-8.9,19.8-19.8V133.3C421.7,122.4,412.8,113.5,401.9,113.5z"/>
										</g>
									</g>
									<g>
										<g>
											<rect x="104.6" y="126.5" fill="#343433" width="302.3" height="1"/>
										</g>
									</g>
								</g>
								<g>
									<g>
										<g>
											<g>
												<path fill="#08090B" d="M110.1,113.5c-10.9,0-19.8,8.9-19.8,19.8v171.6h14.2v-178h237.7l9.3-13.3H110.1z"/>
											</g>
										</g>
										<g>
											<g>
												<path fill="#08090B" d="M401.9,113.5h-50.3l-9.3,13.3h64.6v178h14.8V133.3C421.7,122.4,412.8,113.5,401.9,113.5z"/>
											</g>
										</g>
										<g opacity="0.3">
											<g>
												
													<linearGradient id="SVGID_3_" gradientUnits="userSpaceOnUse" x1="342.2627" y1="209.1792" x2="434.9888" y2="209.1792">
													<stop  offset="0" style="stop-color:#959397"/>
													<stop  offset="0.2344" style="stop-color:#A6A4AA"/>
													<stop  offset="0.7312" style="stop-color:#C4C2CC"/>
													<stop  offset="1" style="stop-color:#D0CED9"/>
												</linearGradient>
												<path fill="url(#SVGID_3_)" d="M401.9,113.5h-50.3l-9.3,13.3h64.6v178h14.8V133.3C421.7,122.4,412.8,113.5,401.9,113.5z
													"/>
											</g>
										</g>
										<g>
											<g>
												<rect x="104.6" y="126.8" fill="#D3D3D3" width="302.3" height="207.3"/>
											</g>
										</g>
									</g>
									<g>
										<path fill="none" d="M401.9,113.5H110.1c-10.9,0-19.8,8.9-19.8,19.8v195.3c0,10.9,8.9,19.8,19.8,19.8h291.8
											c10.9,0,19.8-8.9,19.8-19.8V133.3C421.7,122.4,412.8,113.5,401.9,113.5z"/>
									</g>
								</g>
							</g>
						</g>
					</g>
				</g>
			</g>
		</g>
		<g>
			<g>
				<g>
					<path fill="#337180" d="M256,141.4c-48.6,0-88.1,39.4-88.1,88.1c0,48.6,39.4,88.1,88.1,88.1c48.6,0,88.1-39.4,88.1-88.1
						C344.1,180.9,304.6,141.4,256,141.4z"/>
				</g>
			</g>
			<g>
				<g>
					<g>
						<path fill="#A3D5E0" d="M316.9,233.6c8.3-2.8,17.3-4.7,27.1-5.6c0-1.6-0.1-3.2-0.2-4.7c-10.5,0.9-19.7,2.9-28,5.7
							c-2.2-9.5-5.1-18-8.4-25.5c8.7-3.6,17.8-8.1,27.2-13.6c-0.7-1.4-1.5-2.8-2.2-4.2c-9.3,5.4-18.3,9.9-26.9,13.4
							c-6.5-13.5-14.2-23.8-21.8-31.5c-2.3-2.3-4.6-4.5-6.8-6.5c8.6-2.4,17.7-4.2,27.4-5.3c-2.1-1.4-4.3-2.7-6.5-3.9
							c-7.6,1.2-14.8,2.7-21.4,4.5c1.6-4.5,3.2-8.4,4.5-11.5c-1.5-0.5-3.1-0.9-4.7-1.2c-1.5,3.4-3.3,7.7-5,12.8
							c-9.5-7.3-18.5-11.8-25.2-14.6c-3.3,0.4-6.5,0.9-9.6,1.6c5.2,1.5,17.4,5.9,30.6,15.8c-17.9,6.1-32,14.7-43.1,24.2
							c-6.9-13.6-14.3-22.9-17.6-26.9c-1.3,0.9-2.6,1.8-3.8,2.8c3.1,3.6,10.8,13.3,17.8,27.3c-6.7,6.3-12.3,13-16.8,19.6
							c-12.4-4-21.8-9.3-27.8-13.3c-0.7,1.5-1.3,3-1.9,4.5c6.1,4,15.2,9,27,12.9c-2.8,4.4-5.1,8.8-7.1,13.1
							c-2.5,5.4-4.5,10.7-6.2,15.8c-9.4-15.1-14.3-28.7-16.2-34.7c-0.8,2.8-1.5,5.7-2.1,8.6c3,8,8.2,19.7,16.5,32.1
							c-3.3,12.2-4.5,22.9-5,30.2c1.4,2.3,2.9,4.5,4.6,6.7c0-5.3,0.5-17.3,4-31.7c1.5,2.1,3.1,4.2,4.8,6.2
							c7.5,9.3,17.5,19.2,30.4,27.6c-3.1,7.4-7.1,14.6-11.9,21.8c1.4,0.8,2.8,1.5,4.2,2.2c4.8-7.3,8.6-14.5,11.7-21.5
							c7.5,4.5,15.8,8.4,25.1,11.6c-2.1,7.9-3,14.6-3.4,18.9c1.6,0.1,3.2,0.2,4.8,0.2c0.4-4,1.2-10.3,3.1-17.7
							c12,3.5,25.5,5.6,40.8,5.6c0.5,0,1,0,1.5,0c2.6-1.5,5.1-3.2,7.5-5c-17.5,1-33.7-0.7-48.6-5c1.7-5.6,3.9-11.6,6.9-17.6
							c4.8-9.6,10.8-17.8,17.9-24.6c8.1,9.2,18.7,17.1,31.7,23.6c-0.1,5.9-0.4,11.9-0.9,18c1.8-1.6,3.5-3.3,5.1-5
							c0.2-3.7,0.4-7.2,0.5-10.7c2,0.9,4.1,1.8,6.2,2.7c1-1.3,1.9-2.6,2.8-4c-3.1-1.2-6.1-2.5-8.9-3.9
							C320.8,258.8,319.3,245.5,316.9,233.6z M273.8,164.7c2.2,1.9,4.4,4,6.6,6.2c8.4,8.7,15.3,18.7,20.8,30
							c-11.2,4.3-21.7,7.3-31.5,9.1C267.5,193.7,270.1,177.6,273.8,164.7z M269.1,163.6c-3.8,13.3-6.5,30-4.1,47.3
							c-11,1.7-21.1,2-30.2,1.5c-0.9-3.6-1.9-6.9-3-10.1c-1.7-5.2-3.7-10-5.8-14.4C238,177.3,252.3,169.2,269.1,163.6z M222.4,191.2
							c1.8,3.9,3.5,8.1,5,12.6c0.9,2.7,1.7,5.5,2.5,8.2c-6.3-0.6-12-1.6-17.1-2.9c-1.5-0.4-3-0.8-4.5-1.2
							C212.4,201.8,217.2,196.2,222.4,191.2z M226.4,280.1c-10.4-7-19.9-15.7-28.4-26.2c-2.5-3.1-4.8-6.3-7-9.4
							c1.8-6.1,4.1-12.6,7.1-19.2c2.2-4.7,4.6-9.2,7.3-13.4c1.9,0.6,3.8,1.1,5.8,1.6c5.8,1.4,12.4,2.6,19.7,3.2
							C235.8,238.4,234.3,259.6,226.4,280.1z M262.1,275.9c-3.1,6.3-5.5,12.5-7.2,18.2c-8.7-2.9-16.9-6.7-24.6-11.4
							c9.5-24.6,9.3-47.2,5.5-65.6c2.3,0.1,4.6,0.2,7,0.2c7.1,0,14.7-0.5,22.9-1.8c0.8,4.2,2,8.5,3.5,12.7c2.9,7.8,6.9,14.9,12,21.5
							C272.5,258.1,266.4,267.4,262.1,275.9z M284.9,246.5c-4.8-6.1-8.5-12.7-11.1-19.9c-1.5-3.9-2.5-7.9-3.3-11.9
							c10.2-1.9,21.1-4.9,32.7-9.4c3.5,7.9,6.2,16.4,8.3,25.4C300.8,234.8,292,240.4,284.9,246.5z M287.8,250
							c7.2-6.2,15.4-11.1,24.6-14.8c2.3,11.3,3.4,23.4,3.6,36.2C304.5,265.5,295.1,258.3,287.8,250z"/>
					</g>
				</g>
				<g>
					<g>
						<g>
							<circle fill="#BAEBF4" cx="314" cy="232.1" r="6.9"/>
						</g>
					</g>
					<g>
						<g>
							<circle fill="#BAEBF4" cx="284.3" cy="249.4" r="6.9"/>
						</g>
					</g>
					<g>
						<g>
							<circle fill="#BAEBF4" cx="256.4" cy="297.4" r="6.9"/>
						</g>
					</g>
					<g>
						<g>
							<path fill="#BAEBF4" d="M227.5,276.4c-3.8,0-6.9,3.1-6.9,6.9c0,3.8,3.1,6.9,6.9,6.9c3.8,0,6.9-3.1,6.9-6.9
								C234.3,279.5,231.3,276.4,227.5,276.4z"/>
						</g>
					</g>
					<g>
						<g>
							<circle fill="#BAEBF4" cx="188.3" cy="244.9" r="6.9"/>
						</g>
					</g>
					<g>
						<g>
							<circle fill="#BAEBF4" cx="204.6" cy="209.1" r="6.9"/>
						</g>
					</g>
					<g>
						<g>
							<circle fill="#BAEBF4" cx="233.4" cy="214.8" r="6.9"/>
						</g>
					</g>
					<g>
						<g>
							<circle fill="#BAEBF4" cx="222.9" cy="186.8" r="6.9"/>
						</g>
					</g>
					<g>
						<g>
							<path fill="#BAEBF4" d="M272.7,150.8c-4.8,0-8.7,3.9-8.7,8.7c0,4.8,3.9,8.7,8.7,8.7c4.8,0,8.7-3.9,8.7-8.7
								C281.4,154.7,277.5,150.8,272.7,150.8z"/>
						</g>
					</g>
					<g>
						<g>
							<circle fill="#BAEBF4" cx="267.6" cy="213.2" r="6.9"/>
						</g>
					</g>
					<g>
						<g>
							<path fill="#BAEBF4" d="M304.8,195.3c-3.8,0-6.9,3.1-6.9,6.9c0,3.8,3.1,6.9,6.9,6.9c3.8,0,6.9-3.1,6.9-6.9
								C311.7,198.4,308.6,195.3,304.8,195.3z"/>
						</g>
					</g>
					<g>
						<g>
							<circle fill="#BAEBF4" cx="318.2" cy="274.6" r="6.9"/>
						</g>
					</g>
				</g>
			</g>
		</g>
	</g>
</g>
</svg>
