<?xml version="1.0" encoding="utf-8"?>
<!-- Generator: Adobe Illustrator 16.0.0, SVG Export Plug-In . SVG Version: 6.00 Build 0)  -->
<!DOCTYPE svg PUBLIC "-//W3C//DTD SVG 1.1//EN" "http://www.w3.org/Graphics/SVG/1.1/DTD/svg11.dtd">
<svg version="1.1" id="Layer_1" xmlns="http://www.w3.org/2000/svg" xmlns:xlink="http://www.w3.org/1999/xlink" x="0px" y="0px"
	 width="512px" height="512px" viewBox="0 0 512 512" enable-background="new 0 0 512 512" xml:space="preserve">
<g>
	<g>
		<g>
			<g>
				<g>
					<g>
						<g>
							<path fill="#FABC3D" d="M504.1,256C504.1,119,393,7.9,256,7.9C119,7.9,7.9,119,7.9,256C7.9,393,119,504.1,256,504.1
								C393,504.1,504.1,393,504.1,256z"/>
						</g>
					</g>
				</g>
			</g>
		</g>
	</g>
	<g>
		<g>
			<path fill="#3A3A38" d="M432.2,139.7H79.8c-1.9,0-3.4,1.5-3.4,3.4v74.3c0,1.9,1.5,3.4,3.4,3.4h5.3v-61.9c0-1.6,1.4-3,3-3h335.8
				c1.7,0,3,1.3,3,3v61.9h5.3c1.9,0,3.4-1.5,3.4-3.4v-74.3C435.6,141.2,434.1,139.7,432.2,139.7z"/>
		</g>
		<g>
			<path fill="#3A3A38" d="M120.9,207.3c0,3-2.5,5.5-5.5,5.5h-10.6c-3,0-5.5-2.5-5.5-5.5v-6.7c0-3,2.5-5.5,5.5-5.5h10.6
				c3,0,5.5,2.5,5.5,5.5V207.3z"/>
			<path fill="#3A3A38" d="M143.3,207.3c0,3-2.5,5.5-5.5,5.5h-10.6c-3,0-5.5-2.5-5.5-5.5v-6.7c0-3,2.5-5.5,5.5-5.5h10.6
				c3,0,5.5,2.5,5.5,5.5V207.3z"/>
			<path fill="#3A3A38" d="M165.8,213.5c0,3-2.5,5.5-5.5,5.5h-10.6c-3,0-5.5-2.5-5.5-5.5v-6.7c0-3,2.5-5.5,5.5-5.5h10.6
				c3,0,5.5,2.5,5.5,5.5V213.5z"/>
			<path fill="#3A3A38" d="M188.1,213.5c0,3-2.5,5.5-5.5,5.5H172c-3,0-5.5-2.5-5.5-5.5v-6.7c0-3,2.5-5.5,5.5-5.5h10.6
				c3,0,5.5,2.5,5.5,5.5V213.5z"/>
			<path fill="#3A3A38" d="M210.7,207.3c0,3-2.5,5.5-5.5,5.5h-10.6c-3,0-5.5-2.5-5.5-5.5v-6.7c0-3,2.5-5.5,5.5-5.5h10.6
				c3,0,5.5,2.5,5.5,5.5V207.3z"/>
			<path fill="#3A3A38" d="M233.1,207.3c0,3-2.5,5.5-5.5,5.5h-10.6c-3,0-5.5-2.5-5.5-5.5v-6.7c0-3,2.5-5.5,5.5-5.5h10.6
				c3,0,5.5,2.5,5.5,5.5V207.3z"/>
			<path fill="#3A3A38" d="M255.6,207.3c0,3-2.5,5.5-5.5,5.5h-10.6c-3,0-5.5-2.5-5.5-5.5v-6.7c0-3,2.5-5.5,5.5-5.5h10.6
				c3,0,5.5,2.5,5.5,5.5V207.3z"/>
			<path fill="#3A3A38" d="M278,207.3c0,3-2.5,5.5-5.5,5.5h-10.6c-3,0-5.5-2.5-5.5-5.5v-6.7c0-3,2.5-5.5,5.5-5.5h10.6
				c3,0,5.5,2.5,5.5,5.5V207.3z"/>
			<path fill="#3A3A38" d="M300.5,213.5c0,3-2.5,5.5-5.5,5.5h-10.6c-3,0-5.5-2.5-5.5-5.5v-6.7c0-3,2.5-5.5,5.5-5.5H295
				c3,0,5.5,2.5,5.5,5.5V213.5z"/>
			<path fill="#3A3A38" d="M322.8,207.3c0,3-2.5,5.5-5.5,5.5h-10.6c-3,0-5.5-2.5-5.5-5.5v-6.7c0-3,2.5-5.5,5.5-5.5h10.6
				c3,0,5.5,2.5,5.5,5.5V207.3z"/>
			<path fill="#3A3A38" d="M345.4,213.5c0,3-2.5,5.5-5.5,5.5h-10.6c-3,0-5.5-2.5-5.5-5.5v-6.7c0-3,2.5-5.5,5.5-5.5h10.6
				c3,0,5.5,2.5,5.5,5.5V213.5z"/>
			<path fill="#3A3A38" d="M367.8,207.3c0,3-2.5,5.5-5.5,5.5h-10.6c-3,0-5.5-2.5-5.5-5.5v-6.7c0-3,2.5-5.5,5.5-5.5h10.6
				c3,0,5.5,2.5,5.5,5.5V207.3z"/>
			<path fill="#3A3A38" d="M390.3,207.3c0,3-2.5,5.5-5.5,5.5h-10.6c-3,0-5.5-2.5-5.5-5.5v-6.7c0-3,2.5-5.5,5.5-5.5h10.6
				c3,0,5.5,2.5,5.5,5.5V207.3z"/>
			<path fill="#3A3A38" d="M412.7,213.5c0,3-2.5,5.5-5.5,5.5h-10.6c-3,0-5.5-2.5-5.5-5.5v-6.7c0-3,2.5-5.5,5.5-5.5h10.6
				c3,0,5.5,2.5,5.5,5.5V213.5z"/>
		</g>
		<path fill="#68635C" d="M425.3,203.6H86.7c-1.8,0-3.2,1.5-3.2,3.2v161.4c0,1.8,1.5,3.2,3.2,3.2h338.5c1.8,0,3.2-1.5,3.2-3.2V206.8
			C428.5,205,427.1,203.6,425.3,203.6z"/>
		<rect x="214.9" y="203.6" fill="#7F796F" width="82.1" height="167.9"/>
		<g>
			<g>
				<g>
					<circle fill="#544E48" cx="232.2" cy="341.8" r="7.7"/>
				</g>
				<path fill="#2D2926" d="M227.5,349.3c-0.4,0.4-1,0.4-1.3,0l-1.5-1.5c-0.4-0.4-0.4-1,0-1.3l12.2-12.2c0.4-0.4,1-0.4,1.3,0
					l1.5,1.5c0.4,0.4,0.4,1,0,1.3L227.5,349.3z"/>
			</g>
			<g>
				<g>
					<circle fill="#544E48" cx="256" cy="341.8" r="7.7"/>
				</g>
				<path fill="#2D2926" d="M254,333.2c0-0.5,0.4-0.9,0.9-0.9l2.1,0c0.5,0,0.9,0.4,0.9,0.9v17.2c0,0.5-0.4,0.9-0.9,0.9H255
					c-0.5,0-0.9-0.4-0.9-0.9L254,333.2z"/>
			</g>
			<g>
				<g>
					<circle fill="#544E48" cx="279.8" cy="341.8" r="7.7"/>
				</g>
				<path fill="#2D2926" d="M288.4,339.9c0.5,0,0.9,0.4,0.9,0.9v2.1c0,0.5-0.4,0.9-0.9,0.9h-17.2c-0.5,0-0.9-0.4-0.9-0.9v-2.1
					c0-0.5,0.4-0.9,0.9-0.9L288.4,339.9z"/>
			</g>
		</g>
		<path fill="#918D87" d="M425.3,203.6H86.7c-1.8,0-3.2,1.5-3.2,3.2v25.4h345v-25.4C428.5,205,427.1,203.6,425.3,203.6z"/>
		<rect x="83.5" y="232.2" fill="#232322" width="345" height="3.3"/>
		<g>
			<circle fill="#AFA9A0" cx="152.7" cy="302.8" r="58"/>
			<circle fill="#2D2D2D" cx="152.7" cy="302.8" r="49.7"/>
			<path fill="#494949" d="M103,302.8c0-27.5,22.3-49.7,49.7-49.7c0,0,0,48.6,0,49.2S103,302.8,103,302.8z"/>
			<circle fill="#212120" cx="152.7" cy="302.8" r="17.9"/>
			<g>
				<rect x="98.1" y="289.9" fill="#AFA9A0" width="109" height="4"/>
			</g>
			<g>
				<rect x="98.1" y="311.4" fill="#AFA9A0" width="109" height="4"/>
			</g>
		</g>
		<g>
			<circle fill="#AFA9A0" cx="108.1" cy="218.1" r="11.7"/>
			<circle fill="#2D2D2D" cx="108.1" cy="218.1" r="10"/>
			<path fill="#494949" d="M98.1,218.1c0-5.5,4.5-10,10-10c0,0,0,9.8,0,9.9C108.1,218.1,98.1,218.1,98.1,218.1z"/>
			<circle fill="#212120" cx="108.1" cy="218.1" r="3.6"/>
			<g>
				<rect x="97.1" y="215.5" fill="#AFA9A0" width="21.9" height="0.8"/>
			</g>
			<g>
				<rect x="97.1" y="219.8" fill="#AFA9A0" width="21.9" height="0.8"/>
			</g>
		</g>
		<g>
			<circle fill="#AFA9A0" cx="404" cy="218.1" r="11.7"/>
			<circle fill="#2D2D2D" cx="404" cy="218.1" r="10"/>
			<path fill="#494949" d="M394,218.1c0-5.5,4.5-10,10-10c0,0,0,9.8,0,9.9C404,218.1,394,218.1,394,218.1z"/>
			<circle fill="#212120" cx="404" cy="218.1" r="3.6"/>
			<g>
				<rect x="393" y="215.5" fill="#AFA9A0" width="21.9" height="0.8"/>
			</g>
			<g>
				<rect x="393" y="219.8" fill="#AFA9A0" width="21.9" height="0.8"/>
			</g>
		</g>
		<g>
			<circle fill="#AFA9A0" cx="359.5" cy="302.8" r="58"/>
			<circle fill="#2D2D2D" cx="359.5" cy="302.8" r="49.7"/>
			<path fill="#494949" d="M309.8,302.8c0-27.5,22.3-49.7,49.7-49.7c0,0,0,48.6,0,49.2S309.8,302.8,309.8,302.8z"/>
			<circle fill="#212120" cx="359.5" cy="302.8" r="17.9"/>
			<g>
				<rect x="304.9" y="289.9" fill="#AFA9A0" width="109" height="4"/>
			</g>
			<g>
				<rect x="304.9" y="311.4" fill="#AFA9A0" width="109" height="4"/>
			</g>
		</g>
		<g>
			<g>
				<path fill="#999992" d="M291.6,269.9h-71.5c-0.8,0-1.5,0.7-1.5,1.5v47.7c0,0.8,0.7,1.5,1.5,1.5h71.5c0.8,0,1.5-0.7,1.5-1.5
					v-47.7C293.2,270.6,292.5,269.9,291.6,269.9z"/>
			</g>
			<g>
				<path fill="#3F3F3F" d="M289.3,283.2h-66.8c-0.7,0-1.3,0.6-1.3,1.3v17.5c0,0.7,0.6,1.3,1.3,1.3h66.8c0.7,0,1.3-0.6,1.3-1.3
					v-17.5C290.6,283.8,290,283.2,289.3,283.2z"/>
			</g>
			<g>
				<path fill="#212120" d="M256.1,283.2h-31.4c-1.9,2.9-3,6.4-3,10.2c0,3.6,1,7,2.8,9.9h31.7c1.8-2.9,2.8-6.3,2.8-9.9
					C259.1,289.6,258,286.1,256.1,283.2z"/>
			</g>
			<g>
				<circle fill="#F8F4F1" cx="240.4" cy="293.4" r="7.9"/>
				<circle fill="#E2D9D3" cx="240.4" cy="293.4" r="7.1"/>
				<circle fill="#F8F4F1" cx="240.4" cy="293.4" r="6.7"/>
				<path fill="#49433B" d="M241.4,287.5h-1.9c-0.1,0-0.1,0.1-0.1,0.1v11.5c0,0.1,0.1,0.1,0.1,0.1h1.9c0.1,0,0.1-0.1,0.1-0.1v-11.5
					C241.5,287.5,241.5,287.5,241.4,287.5z"/>
				<circle fill="#5F574A" cx="240.4" cy="293.4" r="4.9"/>
				<circle fill="#F8F4F1" cx="240.4" cy="293.4" r="4.1"/>
				<g>
					<g>
						<g>
							<g>
								<g>
									<path fill="#5F574A" d="M241.1,289.6c0,0.3-0.3,0.4-0.6,0.4l0,0c-0.3,0-0.6,0-0.6-0.4v-0.4c0-0.3,0.3-0.6,0.6-0.6l0,0
										c0.3,0,0.6,0.3,0.6,0.6V289.6z"/>
								</g>
							</g>
							<g>
								<g>
									<path fill="#5F574A" d="M239.8,297.2c0-0.3,0.3-0.4,0.6-0.4l0,0c0.3,0,0.6,0,0.6,0.4v0.4c0,0.3-0.3,0.6-0.6,0.6l0,0
										c-0.3,0-0.6-0.3-0.6-0.6V297.2z"/>
								</g>
							</g>
						</g>
						<g>
							<g>
								<g>
									<path fill="#5F574A" d="M244.2,294c-0.3,0-0.4-0.3-0.4-0.6l0,0c0-0.3,0-0.6,0.4-0.6h0.4c0.3,0,0.6,0.3,0.6,0.6l0,0
										c0,0.3-0.3,0.6-0.6,0.6H244.2z"/>
								</g>
							</g>
							<g>
								<g>
									<path fill="#5F574A" d="M236.7,292.8c0.3,0,0.4,0.3,0.4,0.6l0,0c0,0.3,0,0.6-0.4,0.6h-0.4c-0.3,0-0.6-0.3-0.6-0.6l0,0
										c0-0.3,0.3-0.6,0.6-0.6H236.7z"/>
								</g>
							</g>
						</g>
					</g>
					<g>
						<g>
							<g>
								<g>
									<path fill="#5F574A" d="M243.6,291.2c-0.2,0.2-0.5,0.1-0.7-0.2l0,0c-0.2-0.2-0.4-0.5-0.2-0.7l0.3-0.3
										c0.2-0.2,0.6-0.2,0.9,0l0,0c0.2,0.2,0.2,0.6,0,0.9L243.6,291.2z"/>
								</g>
							</g>
							<g>
								<g>
									<path fill="#5F574A" d="M237.4,295.6c0.2-0.2,0.5-0.1,0.7,0.2l0,0c0.2,0.2,0.4,0.5,0.2,0.7l-0.3,0.3
										c-0.2,0.2-0.6,0.2-0.9,0l0,0c-0.2-0.2-0.2-0.6,0-0.9L237.4,295.6z"/>
								</g>
							</g>
						</g>
						<g>
							<g>
								<g>
									<path fill="#5F574A" d="M242.7,296.5c-0.2-0.2-0.1-0.5,0.2-0.7l0,0c0.2-0.2,0.5-0.4,0.7-0.2l0.3,0.3c0.2,0.2,0.2,0.6,0,0.9
										l0,0c-0.2,0.2-0.6,0.2-0.9,0L242.7,296.5z"/>
								</g>
							</g>
							<g>
								<g>
									<path fill="#5F574A" d="M238.2,290.3c0.2,0.2,0.1,0.5-0.2,0.7l0,0c-0.2,0.2-0.5,0.4-0.7,0.2l-0.3-0.3
										c-0.2-0.2-0.2-0.6,0-0.9l0,0c0.2-0.2,0.6-0.2,0.9,0L238.2,290.3z"/>
								</g>
							</g>
						</g>
					</g>
				</g>
			</g>
			<g>
				<circle fill="#F8F4F1" cx="271.4" cy="293.4" r="7.9"/>
				<circle fill="#E2D9D3" cx="271.4" cy="293.4" r="7.1"/>
				<circle fill="#F8F4F1" cx="271.4" cy="293.4" r="6.7"/>
				<path fill="#49433B" d="M276.3,289.9l-1.4-1.4c-0.1-0.1-0.1-0.1-0.2,0l-8.2,8.2c-0.1,0.1-0.1,0.1,0,0.2l1.4,1.4
					c0.1,0.1,0.1,0.1,0.2,0l8.2-8.2C276.3,290,276.3,289.9,276.3,289.9z"/>
				<circle fill="#5F574A" cx="271.4" cy="293.4" r="4.9"/>
				<circle fill="#F8F4F1" cx="271.4" cy="293.4" r="4.1"/>
				<g>
					<g>
						<g>
							<g>
								<g>
									<path fill="#5F574A" d="M274.5,291.2c-0.2,0.2-0.5,0.1-0.7-0.2l0,0c-0.2-0.2-0.4-0.5-0.2-0.7l0.3-0.3
										c0.2-0.2,0.6-0.2,0.9,0l0,0c0.2,0.2,0.2,0.6,0,0.9L274.5,291.2z"/>
								</g>
							</g>
							<g>
								<g>
									<path fill="#5F574A" d="M268.3,295.6c0.2-0.2,0.5-0.1,0.7,0.2l0,0c0.2,0.2,0.4,0.5,0.2,0.7l-0.3,0.3
										c-0.2,0.2-0.6,0.2-0.9,0l0,0c-0.2-0.2-0.2-0.6,0-0.9L268.3,295.6z"/>
								</g>
							</g>
						</g>
						<g>
							<g>
								<g>
									<path fill="#5F574A" d="M273.6,296.5c-0.2-0.2-0.1-0.5,0.2-0.7l0,0c0.2-0.2,0.5-0.4,0.7-0.2l0.3,0.3c0.2,0.2,0.2,0.6,0,0.9
										l0,0c-0.2,0.2-0.6,0.2-0.9,0L273.6,296.5z"/>
								</g>
							</g>
							<g>
								<g>
									<path fill="#5F574A" d="M269.2,290.3c0.2,0.2,0.1,0.5-0.2,0.7l0,0c-0.2,0.2-0.5,0.4-0.7,0.2l-0.3-0.3
										c-0.2-0.2-0.2-0.6,0-0.9l0,0c0.2-0.2,0.6-0.2,0.9,0L269.2,290.3z"/>
								</g>
							</g>
						</g>
					</g>
					<g>
						<g>
							<g>
								<g>
									<path fill="#5F574A" d="M275.2,294c-0.3,0-0.4-0.3-0.4-0.6l0,0c0-0.3,0-0.6,0.4-0.6h0.4c0.3,0,0.6,0.3,0.6,0.6l0,0
										c0,0.3-0.3,0.6-0.6,0.6H275.2z"/>
								</g>
							</g>
							<g>
								<g>
									<path fill="#5F574A" d="M267.6,292.8c0.3,0,0.4,0.3,0.4,0.6l0,0c0,0.3,0,0.6-0.4,0.6h-0.4c-0.3,0-0.6-0.3-0.6-0.6l0,0
										c0-0.3,0.3-0.6,0.6-0.6H267.6z"/>
								</g>
							</g>
						</g>
						<g>
							<g>
								<g>
									<path fill="#5F574A" d="M270.8,297.2c0-0.3,0.3-0.4,0.6-0.4l0,0c0.3,0,0.6,0,0.6,0.4v0.4c0,0.3-0.3,0.6-0.6,0.6l0,0
										c-0.3,0-0.6-0.3-0.6-0.6V297.2z"/>
								</g>
							</g>
							<g>
								<g>
									<path fill="#5F574A" d="M272,289.6c0,0.3-0.3,0.4-0.6,0.4l0,0c-0.3,0-0.6,0-0.6-0.4v-0.4c0-0.3,0.3-0.6,0.6-0.6l0,0
										c0.3,0,0.6,0.3,0.6,0.6V289.6z"/>
								</g>
							</g>
						</g>
					</g>
				</g>
			</g>
		</g>
		<rect x="131.5" y="207.5" fill="#545454" width="247.9" height="20.7"/>
		<rect x="131.5" y="221.4" fill="#7CA52B" width="247.9" height="3.5"/>
		<g>
			<g>
				<path fill="#544E48" d="M222.2,239.6c0-0.8,0.6-1.4,1.4-1.4l3,0c0.7,0,1.4,0.6,1.4,1.4v24.9c0,0.7-0.6,1.4-1.4,1.4h-3
					c-0.7,0-1.4-0.6-1.4-1.4L222.2,239.6z"/>
				<path fill="#2D2926" d="M228.4,249.2c0.8,0,1.4,0.6,1.4,1.4l0,3c0,0.7-0.6,1.4-1.4,1.4h-6.8c-0.8,0-1.4-0.6-1.4-1.4v-3
					c0-0.7,0.6-1.4,1.4-1.4L228.4,249.2z"/>
			</g>
			<g>
				<path fill="#544E48" d="M237.7,239.6c0-0.8,0.6-1.4,1.4-1.4l3,0c0.7,0,1.4,0.6,1.4,1.4v24.9c0,0.7-0.6,1.4-1.4,1.4h-3
					c-0.7,0-1.4-0.6-1.4-1.4L237.7,239.6z"/>
				<path fill="#2D2926" d="M243.9,243.7c0.8,0,1.4,0.6,1.4,1.4l0,3c0,0.7-0.6,1.4-1.4,1.4h-6.8c-0.8,0-1.4-0.6-1.4-1.4v-3
					c0-0.7,0.6-1.4,1.4-1.4L243.9,243.7z"/>
			</g>
			<g>
				<path fill="#544E48" d="M253.2,239.6c0-0.8,0.6-1.4,1.4-1.4l3,0c0.7,0,1.4,0.6,1.4,1.4v24.9c0,0.7-0.6,1.4-1.4,1.4h-3
					c-0.7,0-1.4-0.6-1.4-1.4L253.2,239.6z"/>
				<path fill="#2D2926" d="M259.4,255.4c0.8,0,1.4,0.6,1.4,1.4l0,3c0,0.7-0.6,1.4-1.4,1.4h-6.8c-0.8,0-1.4-0.6-1.4-1.4v-3
					c0-0.7,0.6-1.4,1.4-1.4L259.4,255.4z"/>
			</g>
			<g>
				<path fill="#544E48" d="M268.7,239.6c0-0.8,0.6-1.4,1.4-1.4l3,0c0.7,0,1.4,0.6,1.4,1.4v24.9c0,0.7-0.6,1.4-1.4,1.4h-3
					c-0.7,0-1.4-0.6-1.4-1.4L268.7,239.6z"/>
				<path fill="#2D2926" d="M274.9,247c0.8,0,1.4,0.6,1.4,1.4l0,3c0,0.7-0.6,1.4-1.4,1.4h-6.8c-0.8,0-1.4-0.6-1.4-1.4v-3
					c0-0.7,0.6-1.4,1.4-1.4L274.9,247z"/>
			</g>
			<g>
				<path fill="#544E48" d="M284.2,239.6c0-0.8,0.6-1.4,1.4-1.4l3,0c0.7,0,1.4,0.6,1.4,1.4v24.9c0,0.7-0.6,1.4-1.4,1.4h-3
					c-0.7,0-1.4-0.6-1.4-1.4L284.2,239.6z"/>
				<path fill="#2D2926" d="M290.4,259.7c0.8,0,1.4,0.6,1.4,1.4l0,3c0,0.7-0.6,1.4-1.4,1.4h-6.8c-0.8,0-1.4-0.6-1.4-1.4v-3
					c0-0.7,0.6-1.4,1.4-1.4L290.4,259.7z"/>
			</g>
		</g>
	</g>
</g>
</svg>
