<?xml version="1.0" encoding="utf-8"?>
<!-- Generator: Adobe Illustrator 16.0.0, SVG Export Plug-In . SVG Version: 6.00 Build 0)  -->
<!DOCTYPE svg PUBLIC "-//W3C//DTD SVG 1.1//EN" "http://www.w3.org/Graphics/SVG/1.1/DTD/svg11.dtd">
<svg version="1.1" id="Layer_1" xmlns="http://www.w3.org/2000/svg" xmlns:xlink="http://www.w3.org/1999/xlink" x="0px" y="0px"
	 width="512px" height="512px" viewBox="0 0 512 512" enable-background="new 0 0 512 512" xml:space="preserve">
<g>
	<g>
		<g>
			<path fill="#337180" d="M256,7.9C119,7.9,7.9,119,7.9,256C7.9,393,119,504.1,256,504.1c137,0,248.1-111.1,248.1-248.1
				C504.1,119,393,7.9,256,7.9z"/>
		</g>
	</g>
	<g>
		<g>
			<g>
				<path fill="#A3D5E0" d="M427.6,267.6c23.4-8,48.8-13.3,76.5-15.8c-0.1-4.5-0.3-8.9-0.6-13.3c-29.5,2.6-55.6,8.3-78.7,16.1
					c-6.3-26.7-14.4-50.6-23.6-71.8c24.6-10.2,50.1-22.9,76.6-38.3c-2-4-4.1-7.9-6.3-11.7c-26.3,15.3-51.6,27.8-75.9,37.9
					c-18.2-38-40.1-67-61.3-88.9c-6.4-6.6-12.8-12.7-19.3-18.3c24.1-6.7,49.8-11.7,77.2-15c-5.9-3.9-12-7.6-18.3-10.9
					c-21.5,3.3-41.6,7.6-60.3,12.7c4.5-12.8,9-23.8,12.8-32.3c-4.3-1.3-8.7-2.5-13.2-3.5c-4.3,9.6-9.2,21.8-14.1,36
					C272.3,30,246.9,17.2,228,9.5c-9.2,1-18.2,2.6-27.1,4.6c14.6,4.3,48.9,16.6,86.3,44.4c-50.4,17.3-90.1,41.4-121.4,68.3
					c-19.4-38.2-40.3-64.6-49.7-75.6c-3.7,2.5-7.3,5.1-10.8,7.8c8.7,10.2,30.5,37.5,50.2,77c-19,17.7-34.5,36.5-47.3,55.2
					c-34.8-11.4-61.3-26.2-78.4-37.5c-1.9,4.1-3.6,8.3-5.3,12.6c17.3,11.3,42.8,25.3,76.1,36.5c-7.8,12.5-14.4,24.8-19.9,36.8
					c-7,15.1-12.7,30.1-17.4,44.5c-26.6-42.5-40.3-80.8-45.6-97.8c-2.3,7.9-4.3,16-5.8,24.2c8.5,22.6,23.1,55.5,46.4,90.5
					c-9.4,34.3-12.8,64.5-14,85c4,6.5,8.3,12.8,12.8,18.9c0-15,1.4-48.6,11.2-89.3c4.2,5.8,8.7,11.7,13.4,17.6
					c21.2,26.3,49.4,54.1,85.6,77.8c-8.9,20.7-20,41.2-33.5,61.4c3.9,2.2,7.8,4.3,11.8,6.2c13.5-20.5,24.3-40.8,32.8-60.7
					c21,12.6,44.5,23.8,70.8,32.5c-5.8,22.3-8.3,41.2-9.4,53.3c4.4,0.3,8.9,0.4,13.4,0.5c1.1-11.4,3.5-29,8.8-49.8
					c33.8,9.9,71.9,15.8,114.8,15.8c1.4,0,2.8,0,4.2,0c7.3-4.3,14.4-9,21.2-14c-49.3,2.7-95-2.1-136.8-14.2
					c4.7-15.7,11-32.6,19.6-49.7c13.5-26.9,30.3-50,50.3-69.4c22.9,26,52.7,48.2,89.2,66.4c-0.2,16.5-1.1,33.4-2.5,50.7
					c5-4.5,9.8-9.2,14.4-14.1c0.7-10.3,1.1-20.4,1.3-30.2c5.7,2.6,11.6,5.1,17.6,7.5c2.7-3.7,5.3-7.4,7.8-11.2
					c-8.7-3.5-17.1-7.1-25.2-11C438.4,338.6,434.4,301,427.6,267.6z M306.1,73.6c6.2,5.4,12.4,11.2,18.6,17.6
					c23.7,24.4,43.2,52.7,58.6,84.5c-31.4,12.2-61.1,20.4-88.7,25.5C288.3,155.1,295.8,109.7,306.1,73.6z M292.8,70.3
					c-10.7,37.5-18.3,84.6-11.5,133.2c-31.1,4.8-59.6,5.7-85,4.2c-2.5-10-5.3-19.6-8.3-28.5c-4.9-14.6-10.5-28.1-16.4-40.7
					C205.2,108.9,245.6,86.1,292.8,70.3z M161.4,148c5,11,9.8,22.8,14,35.4c2.6,7.7,4.9,15.5,7,23.2c-17.7-1.7-33.8-4.6-48.2-8.1
					c-4.3-1-8.6-2.2-12.7-3.3C133.3,178,146.6,162.3,161.4,148z M172.6,398.6c-29.3-19.6-56-44.2-79.9-73.7
					c-7.1-8.8-13.7-17.6-19.6-26.4c5-17.3,11.5-35.5,20.1-54c6.2-13.3,13.1-25.8,20.6-37.8c5.3,1.6,10.8,3.1,16.4,4.4
					c16.4,4,34.9,7.2,55.4,9C199.2,281,194.8,340.7,172.6,398.6z M273.3,386.7c-8.9,17.7-15.4,35.1-20.2,51.2
					c-24.5-8.1-47.6-18.8-69.3-32.2c26.9-69.3,26.2-133,15.6-184.7c6.4,0.3,13,0.5,19.8,0.5c20,0,41.5-1.5,64.4-5
					c2.3,11.9,5.6,23.9,10,35.8c8.1,21.9,19.4,42.1,33.9,60.5C302.6,336.6,285.3,362.7,273.3,386.7z M337.3,303.9
					c-13.4-17.1-23.9-35.8-31.3-56c-4.1-11.1-7.1-22.3-9.3-33.5c28.7-5.3,59.5-13.8,92.1-26.6c9.7,22.2,17.5,46.1,23.3,71.5
					C382.1,271,357.5,286.6,337.3,303.9z M345.6,313.8c20.2-17.4,43.3-31.3,69.3-41.6c6.3,31.8,9.7,65.9,10,102.1
					C392.7,357.4,366.2,337.2,345.6,313.8z"/>
			</g>
		</g>
		<g>
			<g>
				<g>
					<path fill="#BAEBF4" d="M419.5,243.9c-10.7,0-19.4,8.7-19.4,19.4c0,10.7,8.7,19.4,19.4,19.4c10.7,0,19.4-8.7,19.4-19.4
						C438.9,252.6,430.2,243.9,419.5,243.9z"/>
				</g>
			</g>
			<g>
				<g>
					<path fill="#BAEBF4" d="M335.8,292.7c-10.7,0-19.4,8.7-19.4,19.4c0,10.7,8.7,19.4,19.4,19.4c10.7,0,19.4-8.7,19.4-19.4
						C355.2,301.4,346.5,292.7,335.8,292.7z"/>
				</g>
			</g>
			<g>
				<g>
					<path fill="#BAEBF4" d="M257.1,427.9c-10.7,0-19.4,8.7-19.4,19.4c0,10.7,8.7,19.4,19.4,19.4c10.7,0,19.4-8.7,19.4-19.4
						C276.5,436.6,267.8,427.9,257.1,427.9z"/>
				</g>
			</g>
			<g>
				<g>
					<path fill="#BAEBF4" d="M175.6,388c-10.7,0-19.4,8.7-19.4,19.4c0,10.7,8.7,19.4,19.4,19.4c10.7,0,19.4-8.7,19.4-19.4
						C195,396.7,186.3,388,175.6,388z"/>
				</g>
			</g>
			<g>
				<g>
					<path fill="#BAEBF4" d="M65.3,279.9c-10.7,0-19.4,8.7-19.4,19.4c0,10.7,8.7,19.4,19.4,19.4c10.7,0,19.4-8.7,19.4-19.4
						C84.7,288.6,76,279.9,65.3,279.9z"/>
				</g>
			</g>
			<g>
				<g>
					<path fill="#BAEBF4" d="M111.3,179.1c-10.7,0-19.4,8.7-19.4,19.4c0,10.7,8.7,19.4,19.4,19.4c10.7,0,19.4-8.7,19.4-19.4
						C130.7,187.7,122,179.1,111.3,179.1z"/>
				</g>
			</g>
			<g>
				<g>
					<path fill="#BAEBF4" d="M192.2,195.1c-10.7,0-19.4,8.7-19.4,19.4c0,10.7,8.7,19.4,19.4,19.4c10.7,0,19.4-8.7,19.4-19.4
						C211.6,203.8,202.9,195.1,192.2,195.1z"/>
				</g>
			</g>
			<g>
				<g>
					<path fill="#BAEBF4" d="M162.9,116.4c-10.7,0-19.4,8.7-19.4,19.4s8.7,19.4,19.4,19.4c10.7,0,19.4-8.7,19.4-19.4
						S173.6,116.4,162.9,116.4z"/>
				</g>
			</g>
			<g>
				<g>
					<path fill="#BAEBF4" d="M303.1,34.4c-13.5,0-24.4,10.9-24.4,24.4c0,13.5,10.9,24.4,24.4,24.4c13.5,0,24.4-10.9,24.4-24.4
						C327.5,45.3,316.6,34.4,303.1,34.4z"/>
				</g>
			</g>
			<g>
				<g>
					<path fill="#BAEBF4" d="M288.7,190.7c-10.7,0-19.4,8.7-19.4,19.4c0,10.7,8.7,19.4,19.4,19.4s19.4-8.7,19.4-19.4
						C308.1,199.4,299.4,190.7,288.7,190.7z"/>
				</g>
			</g>
			<g>
				<g>
					<path fill="#BAEBF4" d="M393.4,159.7c-10.7,0-19.4,8.7-19.4,19.4c0,10.7,8.7,19.4,19.4,19.4c10.7,0,19.4-8.7,19.4-19.4
						C412.8,168.3,404.1,159.7,393.4,159.7z"/>
				</g>
			</g>
			<g>
				<g>
					<path fill="#BAEBF4" d="M431.1,363.6c-10.7,0-19.4,8.7-19.4,19.4c0,10.7,8.7,19.4,19.4,19.4c10.7,0,19.4-8.7,19.4-19.4
						C450.5,372.3,441.8,363.6,431.1,363.6z"/>
				</g>
			</g>
		</g>
	</g>
</g>
</svg>
