<?xml version="1.0" encoding="utf-8"?>
<!-- Generator: Adobe Illustrator 16.0.0, SVG Export Plug-In . SVG Version: 6.00 Build 0)  -->
<!DOCTYPE svg PUBLIC "-//W3C//DTD SVG 1.1//EN" "http://www.w3.org/Graphics/SVG/1.1/DTD/svg11.dtd">
<svg version="1.1" id="Layer_1" xmlns="http://www.w3.org/2000/svg" xmlns:xlink="http://www.w3.org/1999/xlink" x="0px" y="0px"
	 width="512px" height="512px" viewBox="0 0 512 512" enable-background="new 0 0 512 512" xml:space="preserve">
<g>
	<g>
		<g>
			<path fill="#EA4949" d="M256,7.9C119,7.9,7.9,119,7.9,256C7.9,393,119,504.1,256,504.1c137,0,248.1-111.1,248.1-248.1
				C504.1,119,393,7.9,256,7.9z"/>
		</g>
	</g>
	<g>
		<g>
			<g>
				<g>
					<g>
						<path fill="#6AA0C8" d="M309.8,237.9c-2.1-3.7-4.4-4.5-7.2-6.1l-47.7-22.3c-3.5-1.6-9.1-1.6-12.6,0l-47.7,22.3
							c-3.7,2.1-6,4-7.5,6.6c-1.4,2.6-1.8,5.7-2.2,10.3v58.9c0,4.3,3.2,6,6.5,7.8l49.2,22c0.2,0,5.3,1.3,8.2,1.3s7.9-1.3,7.9-1.3
							l49.2-22c3.1-1.6,6.5-3.5,6.5-7.8v-58.9C312.1,244.2,311.8,241.4,309.8,237.9z"/>
					</g>
				</g>
				<g>
					<g>
						<path fill="#B8D1E5" d="M240.8,263.4l-47.1-21.1c-3.4,0-6.2,3.3-6.2,7.4v56.4c0,4.1,2.7,5.8,6.2,7.4l47.1,21.1
							c3.4,0,6.2-3.3,6.2-7.4v-52.5C247,270.6,244.9,265.5,240.8,263.4z"/>
					</g>
				</g>
				<g>
					<g>
						<path fill="#B8D1E5" d="M303.3,242.3l-47.1,21.1c-3.6,2.2-6.2,7.3-6.2,11.4v52.5c0,4.1,2.8,7.4,6.2,7.4l47.1-21.1
							c3.2-1.5,6.2-3.3,6.2-7.4v-56.4C309.5,245.6,306.7,242.3,303.3,242.3z"/>
					</g>
				</g>
				<g>
					<g>
						<path fill="#B8D1E5" d="M300.3,233.5l-45.7-21.4c-3.3-1.6-8.7-1.6-12.1,0l-45.7,21.4c-3.3,1.6-3.3,4.1,0,5.6l45.7,21.4
							c3.3,1.6,8.7,1.6,12.1,0l45.7-21.4C303.6,237.6,303.6,235.1,300.3,233.5z"/>
					</g>
				</g>
			</g>
		</g>
		<g>
			<g>
				<g>
					<g>
						<path fill="#64A80D" d="M182.3,237.4c-2.1-3.7-4.4-4.5-7.2-6.1L127.3,209c-3.5-1.6-9.1-1.6-12.6,0L67,231.3
							c-3.7,2.1-6,4-7.5,6.6c-1.4,2.6-1.8,5.7-2.2,10.3v58.9c0,4.3,3.2,6,6.5,7.8l49.2,22c0.2,0,5.3,1.3,8.2,1.3s7.9-1.3,7.9-1.3
							l49.2-22c3.1-1.6,6.5-3.5,6.5-7.8v-58.9C184.6,243.7,184.3,240.9,182.3,237.4z"/>
					</g>
				</g>
				<g>
					<g>
						<path fill="#A2CB6E" d="M113.2,262.9l-47.1-21.1c-3.4,0-6.2,3.3-6.2,7.4v56.4c0,4.1,2.7,5.8,6.2,7.4l47.1,21.1
							c3.4,0,6.2-3.3,6.2-7.4v-52.5C119.5,270.1,117.4,265,113.2,262.9z"/>
					</g>
				</g>
				<g>
					<g>
						<path fill="#A2CB6E" d="M175.8,241.8l-47.1,21.1c-3.6,2.2-6.2,7.3-6.2,11.4v52.5c0,4.1,2.8,7.4,6.2,7.4l47.1-21.1
							c3.2-1.5,6.2-3.3,6.2-7.4v-56.4C182,245.1,179.2,241.8,175.8,241.8z"/>
					</g>
				</g>
				<g>
					<g>
						<path fill="#A2CB6E" d="M172.8,233.1L127,211.7c-3.3-1.6-8.7-1.6-12.1,0l-45.7,21.4c-3.3,1.6-3.3,4.1,0,5.6l45.7,21.4
							c3.3,1.6,8.7,1.6,12.1,0l45.7-21.4C176.1,237.1,176.1,234.6,172.8,233.1z"/>
					</g>
				</g>
			</g>
		</g>
		<g>
			<g>
				<g>
					<g>
						<path fill="#6AA0C8" d="M247.3,267c-2.1-3.7-4.4-4.5-7.2-6.1l-47.7-22.3c-3.5-1.6-9.1-1.6-12.6,0l-47.7,22.3
							c-3.7,2.1-6,4-7.5,6.6c-1.4,2.6-1.8,5.7-2.2,10.3v58.9c0,4.3,3.2,6,6.5,7.8l49.2,22c0.2,0,5.3,1.3,8.2,1.3
							c2.9,0,7.9-1.3,7.9-1.3l49.2-22c3.1-1.6,6.5-3.5,6.5-7.8v-58.9C249.5,273.3,249.3,270.5,247.3,267z"/>
					</g>
				</g>
				<g>
					<g>
						<path fill="#B8D1E5" d="M178.2,292.5l-47.1-21.1c-3.4,0-6.2,3.3-6.2,7.4v56.4c0,4.1,2.7,5.8,6.2,7.4l47.1,21.1
							c3.4,0,6.2-3.3,6.2-7.4v-52.5C184.4,299.7,182.4,294.6,178.2,292.5z"/>
					</g>
				</g>
				<g>
					<g>
						<path fill="#B8D1E5" d="M240.7,271.4l-47.1,21.1c-3.6,2.2-6.2,7.3-6.2,11.4v52.5c0,4.1,2.8,7.4,6.2,7.4l47.1-21.1
							c3.2-1.5,6.2-3.3,6.2-7.4v-56.4C246.9,274.7,244.2,271.4,240.7,271.4z"/>
					</g>
				</g>
				<g>
					<g>
						<path fill="#B8D1E5" d="M237.7,262.6L192,241.3c-3.3-1.6-8.7-1.6-12.1,0l-45.7,21.4c-3.3,1.6-3.3,4.1,0,5.6l45.7,21.4
							c3.3,1.6,8.7,1.6,12.1,0l45.7-21.4C241.1,266.7,241.1,264.2,237.7,262.6z"/>
					</g>
				</g>
			</g>
		</g>
		<g>
			<g>
				<g>
					<g>
						<path fill="#EA950C" d="M309.8,161.9c-2.1-3.7-4.4-4.5-7.2-6.1l-47.7-22.3c-3.5-1.6-9.1-1.6-12.6,0l-47.7,22.3
							c-3.7,2.1-6,4-7.5,6.6c-1.4,2.6-1.8,5.7-2.2,10.3v58.9c0,4.3,3.2,6,6.5,7.8l49.2,22c0.2,0,5.3,1.3,8.2,1.3s7.9-1.3,7.9-1.3
							l49.2-22c3.1-1.6,6.5-3.5,6.5-7.8v-58.9C312.1,168.2,311.8,165.4,309.8,161.9z"/>
					</g>
				</g>
				<g>
					<g>
						<path fill="#E8CA4B" d="M240.8,187.4l-47.1-21.1c-3.4,0-6.2,3.3-6.2,7.4v56.4c0,4.1,2.7,5.8,6.2,7.4l47.1,21.1
							c3.4,0,6.2-3.3,6.2-7.4v-52.5C247,194.7,244.9,189.6,240.8,187.4z"/>
					</g>
				</g>
				<g>
					<g>
						<path fill="#E8CA4B" d="M303.3,166.3l-47.1,21.1c-3.6,2.2-6.2,7.3-6.2,11.4v52.5c0,4.1,2.8,7.4,6.2,7.4l47.1-21.1
							c3.2-1.5,6.2-3.3,6.2-7.4v-56.4C309.5,169.7,306.7,166.3,303.3,166.3z"/>
					</g>
				</g>
				<g>
					<g>
						<path fill="#E8CA4B" d="M300.3,157.6l-45.7-21.4c-3.3-1.6-8.7-1.6-12.1,0l-45.7,21.4c-3.3,1.6-3.3,4.1,0,5.6l45.7,21.4
							c3.3,1.6,8.7,1.6,12.1,0l45.7-21.4C303.6,161.7,303.6,159.1,300.3,157.6z"/>
					</g>
				</g>
			</g>
		</g>
		<g>
			<g>
				<g>
					<g>
						<path fill="#6AA0C8" d="M309.8,87.2c-2.1-3.7-4.4-4.5-7.2-6.1l-47.7-22.3c-3.5-1.6-9.1-1.6-12.6,0l-47.7,22.3
							c-3.7,2.1-6,4-7.5,6.6c-1.4,2.6-1.8,5.7-2.2,10.3V157c0,4.3,3.2,6,6.5,7.8l49.2,22c0.2,0,5.3,1.3,8.2,1.3s7.9-1.3,7.9-1.3
							l49.2-22c3.1-1.6,6.5-3.5,6.5-7.8V98.1C312.1,93.6,311.8,90.8,309.8,87.2z"/>
					</g>
				</g>
				<g>
					<g>
						<path fill="#B8D1E5" d="M240.8,112.7l-47.1-21.1c-3.4,0-6.2,3.3-6.2,7.4v56.4c0,4.1,2.7,5.8,6.2,7.4l47.1,21.1
							c3.4,0,6.2-3.3,6.2-7.4v-52.5C247,120,244.9,114.9,240.8,112.7z"/>
					</g>
				</g>
				<g>
					<g>
						<path fill="#B8D1E5" d="M303.3,91.7l-47.1,21.1c-3.6,2.2-6.2,7.3-6.2,11.4v52.5c0,4.1,2.8,7.4,6.2,7.4l47.1-21.1
							c3.2-1.5,6.2-3.3,6.2-7.4V99.1C309.5,95,306.7,91.7,303.3,91.7z"/>
					</g>
				</g>
				<g>
					<g>
						<path fill="#B8D1E5" d="M300.3,82.9l-45.7-21.4c-3.3-1.6-8.7-1.6-12.1,0l-45.7,21.4c-3.3,1.6-3.3,4.1,0,5.6l45.7,21.4
							c3.3,1.6,8.7,1.6,12.1,0l45.7-21.4C303.6,87,303.6,84.5,300.3,82.9z"/>
					</g>
				</g>
			</g>
		</g>
		<g>
			<g>
				<g>
					<g>
						<path fill="#64A80D" d="M374.9,266.5c-2.1-3.7-4.4-4.5-7.2-6.1l-47.7-22.3c-3.5-1.6-9.1-1.6-12.6,0l-47.7,22.3
							c-3.7,2.1-6.1,4-7.5,6.6c-1.4,2.6-1.8,5.7-2.2,10.3v58.9c0,4.3,3.2,6,6.5,7.8l49.2,22c0.2,0,5.3,1.3,8.2,1.3
							c2.9,0,7.9-1.3,7.9-1.3l49.2-22c3.1-1.6,6.5-3.5,6.5-7.8v-58.9C377.1,272.8,376.9,270,374.9,266.5z"/>
					</g>
				</g>
				<g>
					<g>
						<path fill="#A2CB6E" d="M305.8,292l-47.1-21.1c-3.4,0-6.2,3.3-6.2,7.4v56.4c0,4.1,2.7,5.8,6.2,7.4l47.1,21.1
							c3.4,0,6.2-3.3,6.2-7.4v-52.5C312,299.2,310,294.1,305.8,292z"/>
					</g>
				</g>
				<g>
					<g>
						<path fill="#A2CB6E" d="M368.3,270.9L321.3,292c-3.6,2.2-6.2,7.3-6.2,11.4v52.5c0,4.1,2.8,7.4,6.2,7.4l47.1-21.1
							c3.2-1.5,6.2-3.3,6.2-7.4v-56.4C374.5,274.2,371.8,270.9,368.3,270.9z"/>
					</g>
				</g>
				<g>
					<g>
						<path fill="#A2CB6E" d="M365.3,262.1l-45.7-21.4c-3.3-1.6-8.7-1.6-12.1,0l-45.7,21.4c-3.3,1.6-3.3,4.1,0,5.6l45.7,21.4
							c3.3,1.6,8.7,1.6,12.1,0l45.7-21.4C368.7,266.2,368.7,263.7,365.3,262.1z"/>
					</g>
				</g>
			</g>
		</g>
		<g>
			<g>
				<g>
					<g>
						<path fill="#EA950C" d="M438.9,296c-2.1-3.7-4.4-4.5-7.2-6.1l-47.7-22.3c-3.5-1.6-9.1-1.6-12.6,0L323.5,290
							c-3.7,2.1-6.1,4-7.5,6.6c-1.4,2.6-1.8,5.7-2.2,10.3v58.9c0,4.3,3.2,6,6.5,7.8l49.2,22c0.2,0,5.3,1.3,8.2,1.3
							c2.9,0,7.9-1.3,7.9-1.3l49.2-22c3.1-1.6,6.5-3.5,6.5-7.8v-58.9C441.1,302.4,440.9,299.6,438.9,296z"/>
					</g>
				</g>
				<g>
					<g>
						<path fill="#E8CA4B" d="M369.8,321.5l-47.1-21.1c-3.4,0-6.2,3.3-6.2,7.4v56.4c0,4.1,2.7,5.8,6.2,7.4l47.1,21.1
							c3.4,0,6.2-3.3,6.2-7.4v-52.5C376,328.8,374,323.7,369.8,321.5z"/>
					</g>
				</g>
				<g>
					<g>
						<path fill="#E8CA4B" d="M432.3,300.5l-47.1,21.1c-3.6,2.2-6.2,7.3-6.2,11.4v52.5c0,4.1,2.8,7.4,6.2,7.4l47.1-21.1
							c3.2-1.5,6.2-3.3,6.2-7.4v-56.4C438.5,303.8,435.8,300.5,432.3,300.5z"/>
					</g>
				</g>
				<g>
					<g>
						<path fill="#E8CA4B" d="M429.3,291.7l-45.7-21.4c-3.3-1.6-8.7-1.6-12.1,0l-45.7,21.4c-3.3,1.6-3.3,4.1,0,5.6l45.7,21.4
							c3.3,1.6,8.7,1.6,12.1,0l45.7-21.4C432.7,295.8,432.7,293.3,429.3,291.7z"/>
					</g>
				</g>
			</g>
		</g>
	</g>
</g>
</svg>
